<svg width="698" height="567" viewBox="0 0 698 567" fill="none" xmlns="http://www.w3.org/2000/svg">
<path fill-rule="evenodd" clip-rule="evenodd" d="M145.517 91.3376H140.307L139.377 97.8484L134.538 110.312C134.538 110.312 137.81 118.599 139.377 124.078C140.486 127.957 142.726 134.681 142.726 134.681C142.726 134.681 144.002 127.705 147.006 124.822C149.38 122.544 154.263 120.543 154.263 120.543C154.263 120.543 158.531 123.945 160.032 126.868C161.974 130.651 160.59 138.402 160.59 138.402H161.893C162.861 136.973 163.308 136.17 163.664 135.532C164.43 134.157 164.771 133.546 168.964 129.1C168.964 129.1 173.94 126.297 176.035 129.1C177.514 131.079 177.896 134.681 177.896 134.681H180.315L186.084 130.03C186.084 130.03 192.001 129.472 195.016 131.705C198.007 133.92 201.529 137.471 201.529 137.471C201.529 137.471 176.892 155.217 166.173 162.585C155.019 170.25 139.377 176.536 139.377 176.536C139.377 176.536 130.988 177.136 127.467 173.932C124.253 171.007 123.56 163.515 123.56 163.515C123.56 163.515 124.533 157.615 126.165 154.214C127.787 150.833 131.747 146.401 131.747 146.401C131.747 146.401 132.249 144.278 131.375 143.61C130.625 143.036 128.956 143.61 128.956 143.61C128.956 143.61 124.195 148.499 121.885 152.167C119.581 155.826 119.094 163.143 119.094 163.143C119.094 163.143 118.893 174.419 123.932 179.699C129.922 185.976 140.865 184.721 140.865 184.721C140.865 184.721 154.81 180.76 161.893 178.211C166.877 176.416 170.623 174.307 174.493 172.127C178.517 169.86 182.676 167.517 188.503 165.375C190.646 164.587 192.803 163.611 194.958 162.636C202.693 159.135 210.404 155.646 217.346 160.91C217.988 161.397 218.579 161.818 219.115 162.2C221.609 163.978 222.907 164.903 222.556 167.607C222.05 171.507 217.113 171.937 214.368 169.84C212.352 168.298 212.88 164.631 212.88 164.631C212.88 164.631 212.162 163.919 211.577 163.887C210.928 163.851 210.089 164.631 210.089 164.631C210.089 164.631 207.704 178.142 203.017 176.164C200.727 175.198 201.343 171.7 201.343 171.7C201.343 171.7 199.879 171.293 198.924 171.328C197.796 171.369 196.132 172.072 196.132 172.072C196.132 172.072 195.478 176.88 194.271 179.699C192.891 182.922 189.433 184.907 189.433 184.907C189.433 184.907 186.594 184.255 186.084 181.931C185.598 179.721 186.642 176.164 186.642 176.164C186.642 176.164 184.861 175.49 183.665 175.42C182.495 175.352 180.687 175.792 180.687 175.792C180.687 175.792 178.149 177.86 177.338 179.699C176.682 181.185 176.593 183.791 176.593 183.791C176.593 183.791 175.466 188.294 175.477 191.232C175.488 194.099 176.593 198.487 176.593 198.487C176.593 198.487 178.324 201.195 179.199 203.51C179.515 204.346 179.654 205.338 179.799 206.366C180.078 208.345 180.376 210.462 181.99 211.881C183.307 213.039 184.648 212.98 186.067 212.918C187.682 212.847 189.399 212.772 191.294 214.485C193.036 216.059 193.396 217.054 193.722 217.952C193.972 218.641 194.201 219.273 195.016 220.066C195.117 220.165 195.218 220.263 195.318 220.36C197.546 222.533 199.284 224.228 202.459 224.158C205.649 224.088 209.53 220.066 209.53 220.066C209.53 220.066 206.75 214.858 209.53 209.835C213.439 202.775 216.043 206.486 216.043 206.486C216.043 206.486 217.267 207.827 218.276 207.788C219.223 207.752 220.323 206.486 220.323 206.486C220.323 206.486 221.153 202.86 222.742 201.278C224.426 199.601 225.951 198.971 228.325 198.859C230.643 198.75 231.07 199.133 232.218 200.16C232.566 200.472 232.981 200.843 233.535 201.278C236.38 203.51 236.919 219.434 232.791 228.809C231.108 232.63 228.488 234.425 225.98 236.144C223.117 238.105 220.402 239.965 219.393 244.621C218.639 248.1 219.393 253.736 219.393 253.736C219.393 253.736 202.01 261.825 195.016 271.222C189.81 278.218 186.084 291.685 186.084 291.685C186.084 291.685 177.304 304.873 174.174 314.38C171.138 323.603 170.267 338.935 170.267 338.935C170.267 338.935 165.135 343.695 162.637 340.423C161.757 339.271 161.722 338.154 161.693 337.22C161.661 336.221 161.636 335.43 160.59 335.028C159.708 334.69 158.915 335.028 158.915 335.028C158.915 335.028 158.498 335.65 157.427 336.331C155.953 337.267 155.034 338.557 154.116 339.845C153.181 341.158 152.247 342.469 150.728 343.4C147.5 345.376 142.912 344.516 142.912 344.516C142.912 344.516 122.753 301.633 102.532 282.57C95.4642 275.907 84.1098 268.432 84.1098 268.432C84.1098 268.432 77.6 268.47 73.317 268.432C69.1743 268.395 63.2685 268.432 63.2685 268.432C63.2685 268.432 61.4319 263.52 59.1746 261.177C56.0406 257.924 48.7539 256.154 48.7539 256.154C48.7539 256.154 42.0099 260.95 38.3332 263.409C35.9607 264.997 34.5928 264.922 33.1529 264.843C32.2628 264.794 31.3451 264.744 30.1456 265.084C21.0113 267.672 15.0562 269.526 8.74593 276.617C3.18964 282.861 4.54308e-05 293.545 2.17434e-10 297.266C-2.27151e-05 298.623 1.77993 298.697 3.14137 298.753L3.16342 298.754C4.66027 298.816 6.69901 297.266 6.69901 297.266C6.69901 297.266 6.69361 291.94 11.5372 290.197C17.5298 288.041 23.1497 287.964 25.6796 291.685C28.8253 296.311 29.4012 305.079 29.4012 305.079C29.4012 305.079 30.29 306.195 31.076 306.195C31.8621 306.195 32.7508 305.079 32.7508 305.079C32.7508 305.079 35.2786 302.166 37.0307 300.986C39.0198 299.647 47.6375 301.916 47.6375 301.916C47.6375 301.916 50.2292 302.206 56.7556 304.707C61.4353 306.499 70.1536 309.357 70.1536 309.357C70.1536 309.357 76.212 314.21 77.4109 318.658C78.5529 322.896 76.1083 329.82 76.1083 329.82C76.1083 329.82 70.3832 334.383 66.0598 334.47C61.5376 334.562 59.6188 332.978 57.686 328.89C55.7494 324.794 58.6164 318.658 58.6164 318.658C58.6164 318.658 58.7807 316.618 58.0582 315.682C57.2072 314.579 56.0605 314.574 54.704 314.568C54.5832 314.568 54.4606 314.567 54.3365 314.566C52.8192 314.55 49.4046 318.604 47.6375 323.867C45.9437 328.912 45.7766 338.563 45.7766 338.563C45.7766 338.563 46.7373 346.482 49.1261 350.84C51.7199 355.573 53.7388 358.575 58.6164 360.886C63.5524 363.224 67.3068 363.267 72.5727 361.816C74.7171 361.225 75.6873 359.934 76.6929 358.595C78.0108 356.841 79.3895 355.006 83.5516 354.561C88.9472 353.983 97.3218 356.421 97.3218 356.421C97.3218 356.421 113.388 363.734 122.815 370.931C133.885 379.382 142.912 396.788 142.912 396.788L149.053 417.437C149.053 417.437 161.608 417.361 166.173 412.042C167.789 410.158 168.106 408.193 168.43 406.184C168.721 404.38 169.018 402.541 170.267 400.695C172.569 397.289 177.896 393.44 177.896 393.44C177.896 393.44 184.424 400.063 189.619 402.741C198.8 407.474 215.299 402.741 215.299 402.741V408.136L186.084 423.762H174.174V436.969L150.728 449.619L149.053 458.92L135.469 461.897L129.514 472.314L112.767 477.522L110.72 479.197L106.812 480.313C106.812 480.313 105.775 476.651 103.835 476.034C99.7409 474.732 90.995 473.616 87.6455 474.732C84.6802 475.72 82.9934 481.243 82.9934 481.243C82.9934 481.243 77.4284 481.477 73.8753 481.243C72.4578 481.15 71.3447 480.965 70.2476 480.782C69.0267 480.579 67.8254 480.379 66.2458 480.313C64.2487 480.229 62.616 480.593 61.0403 480.945C58.9958 481.402 57.0471 481.838 54.5226 481.243C52.9618 480.875 51.8896 480.128 50.8291 479.389C49.6971 478.601 48.5784 477.821 46.8931 477.522C41.684 476.599 37.8084 477.715 33.8673 481.243C30.7433 484.04 27.4235 487.513 26.0518 491.474C25.2333 493.838 23.4492 495.06 21.6808 496.272C19.8307 497.539 17.9978 498.795 17.3058 501.334C16.5034 504.277 17.3058 509.146 17.3058 509.146L20.0971 508.216C20.0971 508.216 20.2272 505.649 21.2136 504.496C22.2929 503.235 25.1213 502.822 25.1213 502.822H31.076L31.2621 506.356L37.2168 506.542L37.589 502.822H46.8931L49.3122 505.798L57.1277 506.914C57.1277 506.914 57.6836 505.188 58.8025 503.938C60.838 501.664 62.8981 501.856 65.1293 503.938C67.52 506.168 67.6802 509.883 65.1293 511.193C64.3327 511.602 63.7584 511.48 63.1161 511.344C62.768 511.271 62.4001 511.193 61.9659 511.193C61.5828 511.193 61.235 511.116 60.9061 511.044C60.299 510.91 59.7562 510.791 59.1747 511.193C58.5089 511.653 58.4874 512.087 58.4624 512.589C58.4424 512.994 58.4201 513.442 58.0582 513.983C56.5103 516.298 52.1035 513.611 52.1035 513.611C52.1035 513.611 50.251 512.282 48.3818 510.821C48.0063 510.527 47.6198 510.198 47.2224 509.859C45.8182 508.663 44.2785 507.351 42.6132 507.1C40.1104 506.724 38.7996 508.971 37.589 511.193C36.7783 512.681 36.8424 514.264 36.9074 515.867C36.9649 517.288 37.0231 518.724 36.4725 520.122C34.4345 525.295 26.0518 524.958 26.0518 524.958L22.8883 528.307L21.3997 535.562L22.8883 540.026L25.4935 535.19L29.2152 532.585L33.309 532.213L33.6812 535.562L37.9611 539.468H54.7087C54.7087 539.468 63.6268 535.712 69.7814 534.632C76.3507 533.478 86.529 531.283 86.529 531.283H99.5548C99.5548 531.283 99.9673 529.984 101.043 529.237C102.715 528.077 106.626 528.493 106.626 528.493L109.231 524.586L115.372 522.726L127.281 524.586L139.563 522.726H152.217L156.124 520.68L161.893 522.726L162.823 526.261H174.174L176.407 522.726H180.129V529.981L176.407 533.33L178.082 539.468L182.92 538.166L190.736 531.097L195.016 525.331L200.04 522.726C200.04 522.726 202.783 516.703 202.459 512.681C202.083 508.017 198.179 496.125 198.179 496.125L192.038 489.614L201.157 479.197L208.228 463.571L218.834 461.897V451.107L226.65 449.619L265.541 421.343L278.753 432.505L300.525 436.969L326.391 444.038H356.909L333.276 474.174L315.598 470.826L302.2 465.617L290.663 470.826H278.753L265.541 463.571L242.839 470.826C242.839 470.826 235.387 476.453 231.674 481.057C227.448 486.298 223.3 496.125 223.3 496.125L239.49 491.474H264.053V498.729C264.053 498.729 250.336 500.645 244.142 506.17C237.886 511.751 234.466 525.331 234.466 525.331L260.889 521.238L275.404 516.587L294.943 512.681L318.948 515.099L332.346 506.17L370.865 506.914L368.26 513.797L358.769 515.099L352.07 518.634L353.001 524.586H340.533C340.533 524.586 334.368 527.414 332.346 530.911C330.256 534.523 331.043 543.189 331.043 543.189H336.253C336.253 543.189 336.381 540.225 337.37 538.724C338.25 537.388 338.973 536.477 340.533 536.12C342.751 535.612 345.185 539.282 345.185 539.282L355.048 537.794L361.933 536.12L355.048 543.189C355.048 543.189 346.651 548.334 342.952 553.234C340.016 557.124 339.417 564.768 339.417 564.768H343.697C343.697 564.768 343.626 561.966 345.371 560.861C346.116 560.39 350.582 560.861 350.582 560.861H356.536C356.536 560.861 358.942 560.488 359.886 561.419C360.352 561.878 360.354 562.413 360.357 562.973C360.359 563.439 360.361 563.923 360.63 564.395C362.019 566.834 364.522 566.974 367.329 567C370.204 567.026 374.214 564.395 374.214 564.395L384.635 560.861H391.52L398.405 556.769L404.546 551.002L417.386 547.467L426.876 543.189L435.436 539.282L446.043 537.422L464.093 538.538L473.955 536.306L484.376 535.376L486.981 532.027H500.565L501.682 536.306H503.356L504.845 532.027H513.777C513.777 532.027 516.465 535.081 517.499 537.422C518.581 539.873 516.01 544.119 516.01 544.119H522.337L525.687 539.84V526.075L521.034 518.076H515.452L513.777 513.983H508.195L507.264 507.286L502.612 498.915L495.913 496.125L488.47 494.823C488.47 494.823 503.112 486.825 503.356 478.081C503.576 470.226 495.913 461.71 495.913 461.71L503.356 452.595L517.499 454.084C517.499 454.084 530.481 457.337 535.921 452.595C544.145 445.426 539.829 428.784 539.829 428.784C539.829 428.784 545.879 428.092 553.041 426.18C564.61 423.092 576.673 406.648 576.673 406.648C576.673 406.648 592.855 402.28 601.236 396.044C608.044 390.979 615.937 380.046 615.937 380.046C615.937 380.046 628.341 382.092 634.918 388.417C642.853 396.049 642.175 414.461 642.175 414.461C642.175 414.461 644.238 416.473 645.897 416.507C647.619 416.542 649.804 414.461 649.804 414.461C649.804 414.461 659.2 396.474 658.736 384.139C658.453 376.602 657.381 372.221 654.27 365.35C651.843 359.99 646.083 352.701 646.083 352.701C646.083 352.701 654.004 339.55 656.503 330.192C658.951 321.029 658.736 306.009 658.736 306.009C658.736 306.009 671.038 305.293 678.275 311.962C687.295 320.273 690.371 343.586 690.371 343.586H694.464C694.464 343.586 697.672 326.478 696.884 315.496C696.087 304.406 690.371 287.778 690.371 287.778C690.371 287.778 685.821 274.316 680.508 267.13C676.355 261.512 667.854 254.48 667.854 254.48C667.854 254.48 669.757 238.652 667.854 228.809C667.516 227.058 667.175 225.612 666.856 224.263C666.226 221.594 665.685 219.305 665.435 215.787C665.374 214.927 665.271 214.212 665.18 213.584C664.886 211.558 664.725 210.445 666.552 208.346C669.809 204.604 675.253 209.319 677.576 211.332C677.969 211.672 678.273 211.935 678.461 212.067C686.084 217.383 693.534 231.971 693.534 231.971L698 231.227C698 231.227 696.79 212.618 690.371 202.208C684.534 192.743 670.46 182.675 670.46 182.675L659.667 173.932L660.783 160.352C660.783 160.352 665.988 160.037 670.46 160.352C675.57 160.713 681.252 164.631 681.252 164.631H683.858C683.858 164.631 680.738 153.033 675.298 147.517C669.601 141.74 657.434 138.96 657.434 138.96L645.152 134.309L612.029 121.101L571.835 109.754L532.013 105.847C532.013 105.847 496.485 110.975 473.583 110.87C451.839 110.77 418.502 104.545 418.502 104.545C418.502 104.545 391.198 99.9065 379.983 88.5473C372.58 81.0493 365.841 72.7353 365.841 72.7353C365.841 72.7353 363.118 63.8906 363.422 57.4813C363.715 51.2813 366.957 42.0413 366.957 42.0413C366.957 42.0413 374.526 28.4686 381.658 21.9508C391.465 12.988 411.617 10.6034 411.617 10.6034C411.617 10.6034 429.447 10.301 435.25 17.3002C439.939 22.9562 437.297 33.4842 437.297 33.4842C437.297 33.4842 435.293 43.5743 430.97 47.9941C426.093 52.9811 421.441 55.3377 414.222 55.9931C408.474 56.5151 404.543 56.3509 399.708 53.2028C395.092 50.1975 392.598 46.6161 392.451 41.1113C392.336 36.8359 393.561 34.0764 396.358 30.88C399.156 27.6835 406.779 24.7412 406.779 24.7412C406.779 24.7412 408.619 22.9663 408.082 21.9508C407.495 20.8422 404.546 21.3928 404.546 21.3928C404.546 21.3928 396.057 24.6791 392.637 29.0197C389.449 33.0648 388.421 35.8674 388.357 40.7392C388.275 46.9494 389.701 50.921 394.87 55.249C400.56 60.0136 405.568 60.7941 413.106 60.8298C422.543 60.8744 428.17 58.5581 435.25 51.9006C441.377 46.1386 446.415 33.4842 446.415 33.4842C446.415 33.4842 448.984 19.1132 442.321 10.6033C434.018 -0.00158175 419.097 -0.0005371 411.052 7.89072e-06H410.873C402.871 7.89072e-06 383.614 3.59 371.051 12.8356C359.159 21.5872 348.535 40.3671 348.535 40.3671C348.535 40.3671 346.421 51.0075 346.488 58.4114C346.56 66.4516 349.837 78.1299 349.837 78.1299C349.837 78.1299 359.724 98.1748 369.376 107.15C381.852 118.75 406.593 126.496 406.593 126.496C406.593 126.496 442.916 133.708 466.512 135.425C489.27 137.081 524.942 135.425 524.942 135.425C524.942 135.425 529.024 139.77 527.733 143.052C526.877 145.229 524.942 146.587 524.942 146.587C524.942 146.587 514.435 151.685 511.172 153.841C508.278 155.754 507.266 157.217 506.461 158.38C505.024 160.456 504.25 161.575 494.611 162.585C485.951 163.492 473.583 162.585 473.583 162.585C473.583 162.585 458.019 148.373 447.159 151.237C440.201 153.072 433.1 155.617 426.504 158.492C415.106 163.461 403.616 159.422 403.616 159.422C403.616 159.422 391.74 154.026 385.193 154.958C381.5 155.483 378.47 157.234 375.348 159.038C373.899 159.876 372.429 160.725 370.865 161.468C365.747 163.899 360.642 163.099 355.938 162.362C349.942 161.423 344.599 160.586 340.719 166.677C340.574 166.905 340.43 167.129 340.288 167.351C338.032 170.87 336.206 173.719 337.37 177.839C338.48 181.767 341.983 182.005 345.896 182.271C348.528 182.45 351.345 182.642 353.745 183.977C354.943 184.644 356.019 185.177 356.986 185.656C360.807 187.548 362.947 188.607 364.352 193.837C365.474 198.014 364.352 205.556 364.352 205.556C364.352 205.556 365.935 212.532 362.119 214.671C358.551 216.671 357.338 216.016 354.769 214.627C353.592 213.99 352.129 213.199 350.023 212.439C348.281 211.81 346.788 210.817 345.369 209.873C341.525 207.317 338.226 205.123 331.973 211.509C328.116 215.449 327.651 219.307 327.167 223.318C326.736 226.893 326.29 230.59 323.414 234.576C321.784 236.833 320.268 238.26 318.7 239.735C317.256 241.095 315.768 242.494 314.109 244.621C311.508 247.955 311.06 251.629 310.624 255.194C310.123 259.294 309.64 263.251 305.922 266.386C300.854 270.658 293.268 271.222 293.268 271.222C293.268 271.222 295.099 255.638 297.548 246.667C299.161 240.756 301.184 236.846 303.256 232.843C304.92 229.627 306.616 226.35 308.155 221.926C322.088 181.878 313.365 113.474 313.365 113.474C313.365 113.474 330.848 90.1364 328.066 72.7353C325.284 55.3341 311.318 42.9714 311.318 42.9714V49.8544C311.318 49.8544 321.181 62.69 313.365 79.9902C308.774 90.1528 292.71 94.8721 292.71 94.8721C292.71 94.8721 299.409 70.317 291.221 55.249C288.071 49.4526 282.475 40.3671 282.475 40.3671L279.312 48.1802C279.312 48.1802 289.918 70.0351 280.986 77.3858C274.414 82.7943 258.284 88.3612 258.284 88.3612L241.164 79.9902C241.164 79.9902 225.179 74.9761 217.346 79.9902C211.473 83.7493 207.483 94.8721 207.483 94.8721C207.483 94.8721 199.606 96.8558 194.457 96.9183C188.877 96.9859 180.315 94.8721 180.315 94.8721L178.826 91.3376L172.872 88.3612L168.034 91.3376L166.173 94.8721H145.517V91.3376ZM227.58 95.6162C232.822 94.8218 235.992 97.7815 239.842 101.376L240.048 101.569C240.391 101.889 240.745 102.209 241.103 102.531C241.163 102.584 241.223 102.638 241.283 102.691C241.438 102.83 241.594 102.969 241.751 103.108L241.752 103.109C245.476 106.422 249.36 109.878 246.933 114.032C245.76 116.041 244.471 116.969 242.281 117.753C240.043 118.554 238.42 118.158 236.295 117.64C235.948 117.555 235.588 117.467 235.21 117.381C230.641 116.337 224.789 111.428 224.789 111.428C224.789 111.428 217.989 107.986 217.718 103.987C217.377 98.9478 222.585 96.3732 227.58 95.6162ZM575.557 168.165C577.342 167.27 578.803 166.211 580.185 165.21C582.872 163.262 585.257 161.533 589.141 161.655C595.06 161.84 599.554 163.878 602.353 169.095C605 174.029 604.662 178.938 600.492 182.675C595.096 187.512 584.117 184.907 577.604 182.675C577.291 182.568 576.965 182.454 576.629 182.335C574.421 181.559 571.772 180.629 569.602 180.629C569.078 180.629 568.659 180.748 568.275 180.857C567.434 181.097 566.761 181.288 565.508 180.071C563.633 178.248 564.51 175.791 565.508 173.374C566.614 170.698 568.888 170.143 571.436 169.521C572.777 169.194 574.195 168.849 575.557 168.165ZM599.189 209.091C586.722 209.091 575.743 211.509 564.95 220.438C561.781 223.06 561.206 226.412 561.787 230.483C562.268 233.86 569.355 233.97 576.658 234.084C579.414 234.127 582.201 234.17 584.675 234.39C585.095 234.427 585.522 234.465 585.953 234.504C595.689 235.375 607.861 236.464 610.169 232.902C612.699 228.995 613.595 222.169 610.169 216.345C607.479 211.774 604.495 209.091 599.189 209.091ZM565.322 263.409C569.361 262.457 572.479 263.413 575.851 264.446C577.923 265.081 580.092 265.745 582.628 266.014C584.895 266.254 587.216 266.22 589.386 266.188C593.165 266.132 596.486 266.084 598.259 267.502C601.275 269.914 599.376 275.873 599.376 275.873C599.376 275.873 599.401 283.297 596.026 285.174C594.308 286.13 592.971 286.053 591.101 285.945L590.771 285.926L590.63 285.918C587.3 285.738 582.628 282.942 582.628 282.942L566.439 275.873C566.439 275.873 555.418 271.895 557.879 267.502C559.397 264.792 561.495 264.303 564.73 263.548L565.054 263.473L565.322 263.409ZM484.664 316.69C481.63 316.797 478.709 316.899 475.072 318.1C472.939 318.805 471.42 319.929 469.953 321.015C468.024 322.443 466.186 323.804 463.162 324.053C459.967 324.317 457.358 322.568 455.156 321.093C453.453 319.951 451.993 318.973 450.695 319.216C448.052 319.712 447.574 323.19 448.462 325.727C449.645 329.106 453.872 331.692 458.284 334.39C458.558 334.558 458.832 334.725 459.106 334.894C459.28 335 459.453 335.107 459.627 335.214C464.28 338.089 467.399 339.099 472.392 340.716L473.211 340.981C479.989 343.181 483.986 343.975 491.075 344.702C497.415 345.351 501.291 345.136 507.178 344.809L507.201 344.807C507.818 344.773 508.458 344.738 509.125 344.702C517.676 344.242 530.897 342.097 530.897 342.097L545.411 339.679C545.411 339.679 560.746 337.807 561.787 330.564C562.93 322.611 545.411 318.1 545.411 318.1L525.687 312.148C525.687 312.148 518.484 309.081 513.591 308.799C508.564 308.509 505.137 310.322 501.487 312.252C498.856 313.644 496.109 315.096 492.564 315.868C489.578 316.518 487.085 316.605 484.664 316.69ZM403.616 469.71C404.588 468.467 404.904 467.267 405.227 466.043C405.517 464.943 405.812 463.825 406.593 462.641C406.901 462.173 407.15 461.7 407.388 461.249C408.047 459.998 408.62 458.911 410.129 458.548C411.64 458.184 412.59 459.015 413.653 459.946C414.213 460.436 414.804 460.953 415.525 461.338C416.699 461.967 417.636 462.562 418.529 463.131C419.927 464.02 421.22 464.842 423.154 465.617C431.058 468.781 439.344 468.035 444.926 466.733C447.147 466.215 448.584 467.884 449.95 469.71C453.014 473.804 443.81 480.871 443.81 480.871L436.366 485.522C436.366 485.522 427.358 486.364 422.038 484.591C421.108 484.282 420.745 483.886 420.375 483.483C419.776 482.83 419.158 482.158 416.083 481.801C411.247 481.24 403.616 481.801 403.616 481.801C403.616 481.801 400.06 482.222 398.591 480.871C396.559 479.002 397.355 476.27 398.591 473.802C399.208 472.571 400.179 472.058 401.187 471.525C402.033 471.079 402.905 470.618 403.616 469.71Z" fill="black"/>
</svg>
