<svg width="256" height="255" viewBox="0 0 256 255" fill="none" xmlns="http://www.w3.org/2000/svg">
<path fill-rule="evenodd" clip-rule="evenodd" d="M86.9997 9.98234C72.8131 15.7125 55.2622 25.169 55.2622 25.169L54.0983 35.5326L127.377 155.007L203.296 35.3981L202.311 25.0344C202.311 25.0344 184.337 15.193 170.395 9.98234C155.119 4.27324 124.132 0 124.132 0C124.132 0 102.718 3.63369 86.9997 9.98234ZM150.611 70.9905C149.306 76.709 146.692 79.4531 141.68 83.0539C135.728 87.3297 124.019 87.4857 124.019 87.4857V87.4206C122.524 87.2463 112.021 85.9272 106.293 82.6403C100.903 79.5477 98.8374 75.4681 97.4294 69.4053C96.2209 64.201 95.6838 39.2115 97.4294 31.3603C98.7025 25.6344 101.3 22.8758 106.293 19.2469C112.016 15.0868 123.376 14.9867 124.156 14.9847V14.9399C124.156 14.9399 135.877 16.0825 142.034 19.6614C147.407 22.7843 149.449 26.8754 150.823 32.946C152.003 38.157 152.4 63.1491 150.611 70.9905ZM112.47 31.3603C116.206 28.3917 119.319 26.8738 124.156 26.8738C128.416 26.8738 130.831 28.8422 134.057 31.4715C134.604 31.9179 135.176 32.3834 135.783 32.8615C139.17 35.5276 136.829 69.917 135.57 70.906C131.93 73.766 128.992 75.9939 124.132 75.8373C119.982 75.7036 117.556 73.652 114.723 71.2567L114.723 71.2567L114.723 71.2562C114.009 70.6526 113.269 70.0273 112.47 69.4053C109.068 66.7583 111.217 32.3563 112.47 31.3603ZM255.887 133.515C255.112 148.825 252.44 166.221 252.44 166.221L240.891 176.361L130.414 156.351L204.453 36.0697L218.375 37.7297C218.375 37.7297 228.517 51.3903 237.981 62.8986C248.351 75.5078 252.44 92.1503 252.44 92.1503C252.44 92.1503 256.745 116.553 255.887 133.515ZM0.113224 133.517C0.888109 148.827 3.56012 166.223 3.56012 166.223L15.1091 176.362L125.586 156.353L51.5468 36.071L37.6253 37.731C37.6253 37.731 27.4829 51.3916 18.0188 62.8999C7.6494 75.5091 3.56012 92.1516 3.56012 92.1516C3.56012 92.1516 -0.745287 116.554 0.113224 133.517ZM113.049 254.92C113.049 254.92 92.4944 247.375 78.0885 242.223C62.1277 236.516 53.2894 228.091 53.2894 228.091C53.2894 228.091 40.8969 219.044 29.9227 206.96C19.9404 195.968 15.0611 189.238 15.0611 189.238V178.516L126.206 158.094L126.926 254.92H113.049ZM177.349 242.192C162.943 247.344 142.388 254.889 142.388 254.889H128.511L129.231 158.063L240.376 178.485V189.207C240.376 189.207 235.497 195.937 225.515 206.929C214.54 219.013 202.148 228.06 202.148 228.06C202.148 228.06 193.31 236.485 177.349 242.192ZM224.962 134.459C235.271 134.459 243.628 121.704 243.628 105.97C243.628 90.2358 235.271 77.4809 224.962 77.4809C216.883 77.4809 210.003 85.3132 207.404 96.2738C205.869 95.4905 204.233 95.0678 202.535 95.0678C193.684 95.0678 186.509 106.557 186.509 120.73C186.509 134.903 193.684 146.393 202.535 146.393C208.922 146.393 214.436 140.41 217.011 131.753C219.423 133.488 222.118 134.459 224.962 134.459ZM215.019 104.639C216.654 107.887 217.805 111.787 218.295 116.057C219.925 118.021 222.033 119.205 224.335 119.205C229.502 119.205 233.69 113.239 233.69 105.88C233.69 98.5211 229.502 92.5554 224.335 92.5554C219.462 92.5554 215.459 97.8618 215.019 104.639ZM202.535 108.168C204.03 108.168 205.413 109.056 206.536 110.56C206.96 114.557 207.93 118.276 209.324 121.532C209.087 128.05 206.138 133.203 202.535 133.203C198.777 133.203 195.731 127.598 195.731 120.685C195.731 113.772 198.777 108.168 202.535 108.168ZM210.592 203.281L185.077 219.836L197.074 196.327C197.074 196.327 196.654 192.679 195.149 191.123C193.441 189.356 189.195 189.104 189.195 189.104C189.195 189.104 181.01 189.84 176.124 191.616C171.647 193.244 165.381 197.404 165.381 197.404C165.381 197.404 156.957 202.984 154.235 207.184C151.872 210.829 155.13 217.637 155.13 217.637C155.13 217.637 159.58 221.419 162.113 219.432C164.568 217.507 162.113 213.689 162.113 213.689C162.113 213.689 161.061 210.781 161.8 208.889C162.974 205.884 169.499 202.025 169.499 202.025L179.885 198.032C179.885 198.032 183.022 197.459 184.271 198.66C185.166 199.52 185.435 201.621 185.435 201.621L171.469 230.917C171.469 230.917 170.475 233.688 171.469 234.865C172.643 236.256 176.124 234.865 176.124 234.865L212.562 209.741L210.592 203.281ZM18.8244 107.361L26.8818 111.757L31.6268 88.7419C31.6268 88.7419 32.2717 82.0411 35.4318 80.8457C38.4674 79.6974 41.7882 84.3452 41.7882 84.3452L61.6633 131.902C61.6633 131.902 63.8057 138.043 61.3947 140.919C59.2443 143.484 53.8744 143.297 53.8744 143.297L30.6419 128.851L27.3742 135.491C27.3742 135.491 23.4542 138.964 21.152 137.779C18.8213 136.578 19.451 131.273 19.451 131.273L22.6292 124.454L13.8555 119.16C13.8555 119.16 10.337 113.902 11.5727 110.905C12.8646 107.772 18.8244 107.361 18.8244 107.361ZM54.0982 129.299L38.5652 96.5034L34.4022 116.064L54.0982 129.299ZM62.1558 195.833L55.2621 203.64C55.2621 203.64 53.3863 209.465 54.6802 213.151C56.1918 217.457 67.3931 223.829 67.3931 223.829C67.3931 223.829 73.7426 228.042 79.7927 228.988C85.1549 229.827 91.3804 230.531 94.6095 225.534C97.4203 221.183 97.5256 218.38 95.3257 213.689C93.0369 208.809 85.2538 204.268 85.2538 204.268L75.943 198.974C75.943 198.974 77.4248 197.547 78.4945 197.314C79.6725 197.057 82.2099 197.628 82.2099 197.628C82.2099 197.628 93.3595 201.288 96.0867 206.825C97.2855 209.259 96.0867 209.607 96.0867 209.607C96.0867 209.607 96.6993 212.484 98.0115 213.33C99.7238 214.435 103.831 213.689 103.831 213.689C103.831 213.689 108.671 210.263 105.442 206.332C99.3992 198.974 86.1491 193.725 86.1491 193.725C86.1491 193.725 77.42 190.041 73.7496 190.315C70.2625 190.575 68.9392 190.702 66.2293 192.558C64.6261 193.656 62.1558 195.833 62.1558 195.833ZM66.2293 210.818C66.0755 206.868 71.6009 203.326 71.6009 203.326L81.0908 208.485C81.0908 208.485 86.6184 211.16 86.4177 214.676C86.2744 217.187 84.1348 218.983 84.1348 218.983C84.1348 218.983 75.9642 221.151 71.6009 218.176C68.6637 216.173 66.3763 214.597 66.2293 210.818ZM73.0334 231.949L55.1279 219.387C55.1279 219.387 52.0366 217.827 51.1886 219.118C50.6009 220.013 51.3677 221.855 51.3677 221.855L70.1685 234.462C70.1685 234.462 72.427 235.307 73.1676 234.462C73.8147 233.723 73.0334 231.949 73.0334 231.949Z" fill="#000426"/>
</svg>
