<svg width="388" height="342" viewBox="0 0 388 342" fill="none" xmlns="http://www.w3.org/2000/svg">
<path d="M103.301 22.3491C99.2771 22.3491 96.6867 23.6115 93.5786 26.0802C92.5356 26.9086 90.748 55.5184 93.5786 57.7198C94.2436 58.2371 94.8589 58.757 95.4526 59.2589C97.81 61.2515 99.8288 62.9578 103.281 63.0688C107.325 63.1991 109.77 61.3463 112.799 58.9678C113.846 58.1454 115.794 29.5459 112.976 27.3287C112.47 26.9312 111.995 26.5441 111.539 26.1727C108.855 23.9861 106.846 22.3491 103.301 22.3491Z" fill="#01579b"/>
<path fill-rule="evenodd" clip-rule="evenodd" d="M45.9797 20.9314C45.9797 20.9314 60.5827 13.067 72.3865 8.30164C85.4641 3.02185 103.281 0 103.281 0C103.281 0 129.063 3.55383 141.774 8.30164C153.374 12.635 168.329 20.8195 168.329 20.8195L169.149 29.4382L105.981 128.909L45.0115 29.5502L45.9797 20.9314ZM117.882 69.0704C122.053 66.0759 124.227 63.7938 125.313 59.0381C126.802 52.517 126.471 31.7327 125.49 27.399C124.347 22.3505 122.647 18.9481 118.177 16.3511C113.054 13.3748 103.301 12.4246 103.301 12.4246V12.4618C102.653 12.4635 93.2004 12.5468 88.4387 16.0063C84.2849 19.0243 82.1235 21.3185 81.0644 26.0802C79.6118 32.6096 80.0588 53.3917 81.0644 57.7198C82.2358 62.7618 83.9541 66.1545 88.4387 68.7266C93.2053 71.46 101.944 72.557 103.188 72.7019V72.7561C103.188 72.7561 112.929 72.6263 117.882 69.0704Z" fill="#01579b"/>
<path d="M181.628 96.5167C181.22 92.9659 180.263 89.7228 178.903 87.0214C179.268 81.3853 182.599 76.9722 186.654 76.9722C190.953 76.9722 194.438 81.9335 194.438 88.0535C194.438 94.1736 190.953 99.1348 186.654 99.1348C184.738 99.1348 182.984 98.15 181.628 96.5167Z" fill="#01579b"/>
<path d="M171.844 91.9456C170.91 90.6945 169.76 89.9563 168.515 89.9563C165.389 89.9563 162.854 94.6169 162.854 100.366C162.854 106.115 165.389 110.776 168.515 110.776C171.513 110.776 173.967 106.491 174.164 101.07C173.004 98.3623 172.197 95.2699 171.844 91.9456Z" fill="#01579b"/>
<path fill-rule="evenodd" clip-rule="evenodd" d="M210.038 138.235C210.038 138.235 212.261 123.768 212.906 111.036C213.62 96.9292 210.038 76.6353 210.038 76.6353C210.038 76.6353 206.635 62.7949 198.008 52.3086C190.133 42.7379 181.695 31.3773 181.695 31.3773L170.111 29.9968L108.508 130.027L200.429 146.668L210.038 138.235ZM202.706 88.1282C202.706 101.213 195.753 111.82 187.175 111.82C184.809 111.82 182.567 111.013 180.56 109.57C178.417 116.77 173.829 121.745 168.515 121.745C161.151 121.745 155.182 112.19 155.182 100.403C155.182 88.6167 161.151 79.0616 168.515 79.0616C169.928 79.0616 171.289 79.4131 172.567 80.0646C174.729 70.9493 180.453 64.4358 187.175 64.4358C195.753 64.4358 202.706 75.0432 202.706 88.1282Z" fill="#01579b"/>
<path d="M32.0874 80.2555L45.0115 107.53L28.6238 96.5231L32.0874 80.2555Z" fill="#01579b"/>
<path fill-rule="evenodd" clip-rule="evenodd" d="M2.96214 138.237C2.96214 138.237 0.738992 123.769 0.0942163 111.037C-0.620139 96.9303 2.96214 76.6364 2.96214 76.6364C2.96214 76.6364 6.36448 62.796 14.9922 52.3097C22.8667 42.739 31.3054 31.3784 31.3054 31.3784L42.8886 29.9978L104.491 130.028L12.5713 146.669L2.96214 138.237ZM22.3664 92.9412L15.6626 89.2848C15.6626 89.2848 10.7036 89.6267 9.62888 92.2323C8.60081 94.7244 11.5283 99.0975 11.5283 99.0975L18.8281 103.5L16.1838 109.171C16.1838 109.171 15.6599 113.583 17.5991 114.582C19.5146 115.567 22.7761 112.679 22.7761 112.679L25.4951 107.157L44.8252 119.171C44.8252 119.171 49.2929 119.327 51.0823 117.193C53.0884 114.802 51.3059 109.694 51.3059 109.694L34.769 70.1443C34.769 70.1443 32.0061 66.2791 29.4802 67.2341C26.8511 68.2281 26.3144 73.8008 26.3144 73.8008L22.3664 92.9412Z" fill="#01579b"/>
<path d="M59.5742 169.093C59.5742 169.093 54.9768 172.039 55.1047 175.323C55.227 178.466 57.1303 179.777 59.5742 181.442C63.2046 183.917 70.0027 182.114 70.0027 182.114C70.0027 182.114 71.7829 180.62 71.9023 178.532C72.0693 175.608 67.4699 173.383 67.4699 173.383L59.5742 169.093Z" fill="#01579b"/>
<path fill-rule="evenodd" clip-rule="evenodd" d="M64.9721 201.441C76.9582 205.725 94.0603 212 94.0603 212H105.606L105.008 131.477L12.5312 148.46V157.377C12.5312 157.377 16.591 162.974 24.8967 172.115C34.0276 182.164 44.3384 189.688 44.3384 189.688C44.3384 189.688 51.6921 196.695 64.9721 201.441ZM45.9797 169.354L51.7156 162.862C51.7156 162.862 53.771 161.051 55.1047 160.138C57.3596 158.594 58.4607 158.489 61.3618 158.272C64.4157 158.045 71.6787 161.108 71.6787 161.108C71.6787 161.108 82.7031 165.473 87.7312 171.592C90.4179 174.862 86.3904 177.711 86.3904 177.711C86.3904 177.711 82.9734 178.332 81.5486 177.413C80.4568 176.709 79.947 174.316 79.947 174.316C79.947 174.316 80.9446 174.027 79.947 172.003C77.678 167.398 68.4011 164.354 68.4011 164.354C68.4011 164.354 66.29 163.879 65.3098 164.093C64.4199 164.287 63.187 165.473 63.187 165.473L70.9338 169.876C70.9338 169.876 77.4096 173.653 79.3139 177.711C81.1443 181.612 81.0566 183.943 78.718 187.561C76.0312 191.718 70.8515 191.132 66.3899 190.434C61.3562 189.648 56.0732 186.144 56.0732 186.144C56.0732 186.144 46.7534 180.844 45.4956 177.264C44.4192 174.198 45.9797 169.354 45.9797 169.354ZM45.8681 182.45L60.7661 192.897C60.7661 192.897 61.416 194.372 60.8777 194.986C60.2615 195.689 58.3823 194.986 58.3823 194.986L42.7395 184.502C42.7395 184.502 42.1015 182.97 42.5906 182.226C43.2961 181.153 45.8681 182.45 45.8681 182.45Z" fill="#01579b"/>
<path fill-rule="evenodd" clip-rule="evenodd" d="M118.471 211.974C118.471 211.974 135.574 205.699 147.56 201.415C160.84 196.669 168.193 189.662 168.193 189.662C168.193 189.662 178.504 182.138 187.635 172.089C195.941 162.948 200 157.351 200 157.351V148.434L107.524 131.451L106.926 211.974H118.471ZM153.99 182.823L175.219 169.055L176.858 174.428L146.541 195.322C146.541 195.322 143.645 196.479 142.667 195.322C141.841 194.343 142.667 192.039 142.667 192.039L154.288 167.675C154.288 167.675 154.064 165.928 153.32 165.212C152.28 164.214 149.67 164.69 149.67 164.69L141.029 168.01C141.029 168.01 135.599 171.22 134.623 173.719C134.008 175.293 134.883 177.711 134.883 177.711C134.883 177.711 136.926 180.886 134.883 182.487C132.776 184.139 129.073 180.995 129.073 180.995C129.073 180.995 126.363 175.333 128.328 172.301C130.593 168.809 137.602 164.167 137.602 164.167C137.602 164.167 142.815 160.708 146.541 159.354C150.606 157.877 157.416 157.265 157.416 157.265C157.416 157.265 160.949 157.475 162.37 158.944C163.622 160.239 163.972 163.272 163.972 163.272L153.99 182.823Z" fill="#01579b"/>
<path d="M278.301 152.349C274.277 152.349 271.687 153.611 268.579 156.08C267.536 156.909 265.748 185.518 268.579 187.72C269.244 188.237 269.859 188.757 270.453 189.259C272.81 191.251 274.829 192.958 278.281 193.069C282.325 193.199 284.77 191.346 287.799 188.968C288.846 188.145 290.794 159.546 287.976 157.329C287.712 157.121 287.456 156.917 287.208 156.716C286.98 156.531 286.757 156.35 286.539 156.173C283.855 153.986 281.846 152.349 278.301 152.349Z" fill="#01579b"/>
<path fill-rule="evenodd" clip-rule="evenodd" d="M220.98 150.931C220.98 150.931 235.583 143.067 247.386 138.302C260.464 133.022 278.281 130 278.281 130C278.281 130 304.063 133.554 316.774 138.302C328.374 142.635 343.329 150.819 343.329 150.819L344.149 159.438L280.981 258.909L220.011 159.55L220.98 150.931ZM292.882 199.07C297.053 196.076 299.227 193.794 300.313 189.038C301.802 182.517 301.471 161.733 300.49 157.399C299.347 152.35 297.647 148.948 293.177 146.351C288.054 143.375 278.301 142.425 278.301 142.425V142.462C277.653 142.464 268.201 142.547 263.439 146.006C259.285 149.024 257.124 151.318 256.064 156.08C254.612 162.61 255.059 183.392 256.064 187.72C257.236 192.762 258.954 196.155 263.439 198.727C268.205 201.46 276.944 202.557 278.188 202.702V202.756C278.188 202.756 287.93 202.626 292.882 199.07Z" fill="#01579b"/>
<path d="M356.628 226.517C356.22 222.966 355.263 219.723 353.903 217.021C354.268 211.385 357.599 206.972 361.654 206.972C365.953 206.972 369.438 211.933 369.438 218.053C369.438 224.174 365.953 229.135 361.654 229.135C359.738 229.135 357.984 228.15 356.628 226.517Z" fill="#01579b"/>
<path d="M346.844 221.946C345.91 220.694 344.76 219.956 343.515 219.956C340.389 219.956 337.854 224.617 337.854 230.366C337.854 236.115 340.389 240.776 343.515 240.776C346.513 240.776 348.967 236.491 349.164 231.07C348.004 228.362 347.197 225.27 346.844 221.946Z" fill="#01579b"/>
<path fill-rule="evenodd" clip-rule="evenodd" d="M385.038 268.235C385.038 268.235 387.261 253.768 387.906 241.036C388.62 226.929 385.038 206.635 385.038 206.635C385.038 206.635 381.635 192.795 373.008 182.309C365.133 172.738 356.695 161.377 356.695 161.377L345.111 159.997L283.508 260.027L375.429 276.668L385.038 268.235ZM377.706 218.128C377.706 231.213 370.753 241.82 362.175 241.82C359.809 241.82 357.567 241.013 355.56 239.57C353.417 246.769 348.829 251.745 343.515 251.745C336.151 251.745 330.182 242.19 330.182 230.403C330.182 218.617 336.151 209.062 343.515 209.062C344.928 209.062 346.289 209.413 347.567 210.065C349.729 200.949 355.453 194.436 362.175 194.436C370.753 194.436 377.706 205.043 377.706 218.128Z" fill="#01579b"/>
<path d="M207.087 210.255L220.011 237.53L203.624 226.523L207.087 210.255Z" fill="#01579b"/>
<path fill-rule="evenodd" clip-rule="evenodd" d="M177.962 268.237C177.962 268.237 175.739 253.769 175.094 241.037C174.38 226.93 177.962 206.636 177.962 206.636C177.962 206.636 181.364 192.796 189.992 182.31C197.867 172.739 206.305 161.378 206.305 161.378L217.889 159.998L279.492 260.028L187.571 276.669L177.962 268.237ZM197.366 222.941L190.662 219.285C190.662 219.285 185.704 219.627 184.629 222.232C183.601 224.724 186.528 229.098 186.528 229.098L193.828 233.5L191.184 239.171C191.184 239.171 190.66 243.583 192.599 244.581C194.515 245.567 197.776 242.679 197.776 242.679L200.495 237.157L219.825 249.171C219.825 249.171 224.293 249.327 226.082 247.193C228.088 244.802 226.306 239.694 226.306 239.694L209.769 200.144C209.769 200.144 207.006 196.279 204.48 197.234C201.851 198.228 201.314 203.801 201.314 203.801L197.366 222.941Z" fill="#01579b"/>
<path d="M234.574 299.093C234.574 299.093 229.977 302.039 230.105 305.323C230.227 308.466 232.13 309.777 234.574 311.442C238.205 313.917 245.003 312.114 245.003 312.114C245.003 312.114 246.783 310.62 246.902 308.532C247.069 305.608 242.47 303.383 242.47 303.383L234.574 299.093Z" fill="#01579b"/>
<path fill-rule="evenodd" clip-rule="evenodd" d="M239.972 331.441C251.958 335.725 269.06 342 269.06 342H280.606L280.008 261.477L187.531 278.46V287.377C187.531 287.377 191.591 292.974 199.897 302.115C209.027 312.164 219.338 319.688 219.338 319.688C219.338 319.688 226.692 326.695 239.972 331.441ZM220.98 299.354L226.716 292.862C226.716 292.862 228.771 291.051 230.105 290.138C232.36 288.594 233.461 288.489 236.362 288.272C239.416 288.045 246.679 291.108 246.679 291.108C246.679 291.108 257.703 295.473 262.731 301.592C265.418 304.862 261.39 307.711 261.39 307.711C261.39 307.711 257.973 308.332 256.549 307.413C255.457 306.709 254.947 304.316 254.947 304.316C254.947 304.316 255.945 304.027 254.947 302.003C252.678 297.398 243.401 294.354 243.401 294.354C243.401 294.354 241.29 293.879 240.31 294.093C239.42 294.287 238.187 295.473 238.187 295.473L245.934 299.876C245.934 299.876 252.41 303.653 254.314 307.711C256.144 311.612 256.057 313.943 253.718 317.561C251.031 321.718 245.852 321.132 241.39 320.434C236.356 319.648 231.073 316.144 231.073 316.144C231.073 316.144 221.753 310.844 220.496 307.264C219.419 304.199 220.98 299.354 220.98 299.354ZM220.868 312.45L235.766 322.897C235.766 322.897 236.416 324.372 235.878 324.986C235.261 325.689 233.382 324.986 233.382 324.986L217.739 314.502C217.739 314.502 217.102 312.97 217.591 312.226C218.296 311.153 220.868 312.45 220.868 312.45Z" fill="#01579b"/>
<path fill-rule="evenodd" clip-rule="evenodd" d="M293.471 341.974C293.471 341.974 310.574 335.699 322.56 331.415C335.84 326.669 343.193 319.662 343.193 319.662C343.193 319.662 353.504 312.138 362.635 302.089C370.941 292.948 375 287.351 375 287.351V278.434L282.524 261.451L281.926 341.974H293.471ZM328.99 312.823L350.219 299.055L351.858 304.428L321.541 325.322C321.541 325.322 318.645 326.479 317.667 325.322C316.841 324.343 317.667 322.039 317.667 322.039L329.288 297.675C329.288 297.675 329.064 295.928 328.32 295.212C327.28 294.214 324.67 294.69 324.67 294.69L316.029 298.011C316.029 298.011 310.599 301.22 309.623 303.719C309.008 305.293 309.883 307.711 309.883 307.711C309.883 307.711 311.926 310.886 309.883 312.487C307.776 314.139 304.073 310.995 304.073 310.995C304.073 310.995 301.363 305.333 303.328 302.301C305.593 298.809 312.602 294.168 312.602 294.168C312.602 294.168 317.815 290.708 321.541 289.354C325.606 287.877 332.416 287.265 332.416 287.265C332.416 287.265 335.949 287.475 337.37 288.944C338.622 290.239 338.972 293.272 338.972 293.272L328.99 312.823Z" fill="#01579b"/>
</svg>
