<svg width="223" height="255" viewBox="0 0 223 255" fill="none" xmlns="http://www.w3.org/2000/svg">
<path fill-rule="evenodd" clip-rule="evenodd" d="M77.0997 42.6663L77.7637 39.09L79.4235 35.3474L82.4942 30.9393L84.818 28.6937L87.3078 26.864L89.9635 25.7828L93.4492 25.0342L95.358 25.3669L97.2668 27.1967L97.3498 28.9432L96.9349 31.8542L95.192 35.9295L92.5363 40.1712L88.1377 44.0802L84.818 45.7436L80.8344 46.5753L79.0916 46.0763L77.5147 44.8288L77.0997 42.6663ZM84.0711 41.7515L85.399 41.4188L86.6438 40.5039L89.2996 37.5098L90.7935 34.4325L91.7894 31.272L91.4574 30.3571L90.4615 29.6918L89.1336 30.1076L87.6398 30.9393L85.067 34.0998L83.4901 37.5098L82.4942 40.5039L84.0711 41.7515Z" fill="#01579b"/>
<path d="M68.2196 32.5196L67.8876 33.5176L68.0536 34.5988L69.1325 34.7652L70.5434 34.0166L71.2073 33.7671L71.7882 33.5176H72.2862L65.8958 46.908L66.4767 47.6566L66.8917 48.1556L69.1325 48.0724L69.9624 47.6566L70.7093 47.1575L78.7596 30.6067L79.3405 28.7769L79.0916 28.1115L78.9256 27.6957L77.8467 27.4462L76.2698 27.5294L73.5311 28.5274L71.7882 29.3591L69.2985 31.272L68.2196 32.5196Z" fill="#01579b"/>
<path fill-rule="evenodd" clip-rule="evenodd" d="M52.1191 82.0059L54.9408 80.9247L58.5095 80.093L62.4101 81.4237L64.4019 83.3366L65.9788 86.0812L66.6427 89.0753L65.8128 92.9843L64.4849 96.3943L60.6673 102.299L56.2687 106.624L53.53 108.038L50.2933 108.454L47.3055 107.705L44.8158 105.709L43.2389 102.798L42.409 98.3904L38.0934 99.5548L34.4418 98.3904L30.9561 94.7309L30.6241 90.5724L31.371 86.0812L34.7737 79.2612L39.5873 74.6869L44.7328 73.0235L47.8865 73.6057L50.2933 75.4354L51.7871 78.0969L52.1191 82.0059ZM58.7585 93.4834L58.6755 91.6536L57.7626 90.1566L56.4347 89.3249L54.6089 88.909L52.4511 89.3249L50.5422 90.5724L49.3804 92.4853L48.9654 94.8141L49.3804 96.4775L50.1273 98.0577L51.6211 98.8063L53.198 99.3053L55.4388 98.8063L57.2646 97.5587L58.2605 95.6458L58.7585 93.4834ZM41.1641 90.9883L43.1559 90.4061L45.1478 89.408L45.7287 88.2436L45.8947 86.0812L44.8988 83.2534L43.9029 82.4217L41.9941 81.9227L39.7533 82.7544L38.3424 84.2515L37.5955 86.8297L38.3424 88.8258L39.5873 90.4061L41.1641 90.9883Z" fill="#01579b"/>
<path d="M20.748 146.213L13.1958 151.536L8.5482 155.528L8.4652 159.022L12.8638 165.925H14.5236L15.4365 163.346L14.8556 161.766L13.5277 160.186L13.7767 159.105L22.4079 152.701L22.5739 149.956L20.748 146.213Z" fill="#01579b"/>
<path fill-rule="evenodd" clip-rule="evenodd" d="M113.035 132.989L113.201 126.003L116.438 119.349L121.335 115.024L124.82 113.86L128.804 113.444L132.456 113.86L136.107 115.024L140.921 119.349L144.074 126.003L144.738 132.989L144.323 140.225L141.917 147.128L136.854 152.035L133.202 153.615L129.053 154.697L124.737 153.615L120.671 152.035L115.857 147.128L113.284 140.225L113.035 132.989ZM129.053 145.631L132.539 143.302L134.198 139.477L134.779 133.904L134.198 128.581L132.788 124.922L130.298 122.011H127.061L124.488 124.922L123.243 128.581L122.662 133.904L123.243 139.477L124.903 143.302L129.053 145.631Z" fill="#01579b"/>
<path d="M83.6561 117.436L83.3242 119.765L83.6561 123.009L85.399 124.423L86.8098 124.256L87.8057 123.258L90.3785 122.26L93.0342 122.011L96.105 122.676L98.0138 124.423L98.4287 126.169L83.7391 141.556L82.1623 144.883L81.9133 147.461L82.1623 149.956L82.9092 151.619L84.735 152.867H106.479L107.724 152.035L108.72 150.871L108.637 147.461L108.305 145.465L106.977 144.716H93.5322L99.8396 139.227L105.732 133.488L107.973 129.579L108.886 125.254L107.807 120.93L105.068 116.854L100.421 114.026L94.2791 113.527L89.8805 113.777L85.6479 115.108L83.6561 117.436Z" fill="#01579b"/>
<path d="M120.256 189.795L123.907 189.462L127.31 189.795L128.721 192.123V208.924L131.045 207.926L134.032 207.427L135.443 208.425L136.024 209.672V211.668L135.277 213.249L133.119 214.33L129.302 215.411L125.401 215.993L122.745 215.827L121.003 214.496L120.256 213.031V189.795Z" fill="#01579b"/>
<path fill-rule="evenodd" clip-rule="evenodd" d="M92.0383 195.367H87.8057L86.5609 196.282L86.4779 197.862L86.5609 199.609L87.3908 200.523H92.0383V212.583L92.7853 214.746L95.0261 215.827H100.255L102.08 215.411L114.778 201.854L115.525 200.523V199.026L115.11 196.781L113.284 195.367H99.8396V191.292L99.0097 190.294L96.1879 189.462L92.9513 189.878L92.0383 190.294V195.367ZM99.4246 200.523H106.479L99.4246 208.341V200.523Z" fill="#01579b"/>
<path d="M48.9654 198.694L48.8824 197.862L49.5463 197.28L52.1191 197.197L63.738 210.338V211.336H60.0863L48.9654 198.694Z" fill="#01579b"/>
<path fill-rule="evenodd" clip-rule="evenodd" d="M180.176 192.705L172.292 201.106L170.964 200.44H169.055L164.657 204.848V205.431L167.312 206.595L164.822 209.755L165.237 210.753L166.731 211.086L168.059 210.753L170.549 207.926L177.354 210.753H179.512L181.006 210.338L185.156 206.512L185.985 204.848V192.705L185.239 191.707L183.994 191.208L181.919 191.707L180.176 192.705ZM175.445 202.686L180.591 197.779V204.848L175.445 202.686Z" fill="#01579b"/>
<path fill-rule="evenodd" clip-rule="evenodd" d="M200.094 147.794L199.928 151.536L200.094 154.364L201.007 156.859L202.418 158.522L204.327 159.687L205.738 159.105L206.734 158.439L207.066 160.934L208.144 163.097L210.966 164.76L213.124 163.845L215.033 161.184L216.278 158.273L216.527 154.114L216.444 151.287L215.116 148.209L213.954 146.962L212.128 146.13L210.966 146.546L210.219 147.128L209.97 144.467L208.974 141.972L207.646 140.475L205.655 140.059L203.248 141.223L201.339 144.134L200.094 147.794ZM212.626 157.275L211.547 158.273L210.219 157.608L209.555 155.362L209.804 153.948L211.215 152.617L212.626 153.948L212.958 155.612L212.626 157.275ZM206.734 152.451L205.24 153.283L203.912 152.118L203.497 150.455L203.663 147.96L205.24 146.546L207.066 147.794L207.314 150.455L206.734 152.451Z" fill="#01579b"/>
<path d="M123.575 24.7847L124.737 24.2857L128.223 23.8699L130.049 24.3689L131.045 24.7847L132.622 25.6996L133.7 26.864L134.53 28.0284L141.419 44.2466L141.087 44.9119H138.514L137.269 44.3297L135.941 43.7476L134.696 42.5L128.887 29.0264H127.642L126.646 29.5254L125.318 29.0264L123.824 28.1947L123.077 26.864V25.2006L123.575 24.7847Z" fill="#01579b"/>
<path d="M148.307 32.1869L149.22 33.7671L143.991 39.0068L143.079 40.0049L142.996 41.0029L143.411 42.3337L144.655 44.1634L146.315 45.4941L147.892 45.8268L153.951 47.0744L159.926 48.0724L160.756 47.9061L161.171 47.2407L160.756 45.9931L159.926 44.7456L159.013 43.9971L154.531 42.999L150.382 42.2505L154.697 39.0068L155.61 37.7593L156.025 36.1791L155.61 34.2661L154.614 32.3532L152.789 30.5235L150.548 29.0264L148.639 27.862L146.315 26.7808L143.742 26.1155L140.672 25.8659L139.261 26.1155L138.514 26.7808L138.016 27.6125L138.514 28.7769L139.759 30.5235L140.838 31.0225L141.834 30.5235L143.079 30.274L144.821 30.3571L146.647 31.0225L148.307 32.1869Z" fill="#01579b"/>
<path d="M164.822 87.0793L162.416 86.7466L160.507 87.4119L158.93 88.3268L157.851 90.3229L157.353 92.1526L158.017 93.6497L170.134 111.032L172.541 111.614L175.197 109.868L176.441 107.789L169.553 97.8914L175.777 100.802L179.346 102.05L182.749 102.798L186.068 102.05L188.807 100.47L190.218 97.8914L190.384 94.7309L189.969 92.1526L189.305 89.5744L186.732 84.6673L185.073 82.4217L182.998 80.1761L180.84 78.5127L178.101 77.2652L176.441 78.0969L174.699 79.5108L174.284 81.0078L174.699 82.8376L176.524 84.1683L178.682 86.1644L180.259 88.3268L181.338 90.7387L181.089 92.319L179.346 92.818L164.822 87.0793Z" fill="#01579b"/>
<path fill-rule="evenodd" clip-rule="evenodd" d="M223 185.719L222.668 80.3425V68.2828L221.672 65.1223L219.846 62.2113L215.78 59.2172L210.966 56.3894L115.94 1.24755L114.114 0.415851L111.542 0L109.052 0.582192L106.894 1.24755L5.89245 59.7994L3.73465 61.7955L1.82583 64.0411L0.74693 66.7025L0 69.2808L0.165984 80.592V187.05L1.0789 190.377L2.98772 193.288L5.06252 195.367L7.63528 197.113L107.226 254.418L109.301 254.834L111.542 255L113.782 254.834L115.857 254.418L217.855 195.533L222.004 191.375L223 185.719ZM109.052 5.3229V47.8229L14.3576 60.0489L14.2747 59.7994L92.1213 15.137L108.388 5.3229H109.052ZM14.3576 64.956L106.728 52.8963L40.3342 169.085H39.4213L9.95906 80.6751L5.56048 66.8689L6.47339 65.954L14.3576 64.956ZM4.31559 80.592H4.81355L35.9356 173.743L35.5207 174.491L5.72646 186.551L4.31559 185.22V145.465L6.22441 147.544L9.37812 148.542L13.0298 147.211L15.8515 144.55L17.2624 140.807L17.5943 137.48L17.2624 134.07L16.6814 131.742L15.6855 129.33L14.0257 127.25L11.2869 126.086L8.29922 127.25L6.97134 129.33L6.47339 131.659L6.3904 134.07L6.72237 137.231L8.13323 139.643L9.87607 141.722L9.37812 142.138L8.4652 142.387L5.80945 140.558L4.31559 137.397V80.592ZM10.54 133.405L12.1999 132.657L13.6107 133.405L14.3576 135.152L13.9427 138.146L12.1999 139.643L10.54 138.146L9.87607 135.152L10.54 133.405ZM43.7369 172.162L111.542 54.726L179.512 172.329L179.014 173.327L44.5668 173.244L43.7369 172.994V172.162ZM44.7328 178.317L178.184 177.818L178.599 178.4L112.703 250.01L111.707 250.259L110.629 250.01L44.7328 178.317ZM37.6785 178.899H38.6744L98.5947 244.105L99.0097 244.77L98.1798 244.521L47.9695 215.328V214.912L49.3804 215.245L50.7912 215.411L52.2021 215.245L53.447 214.912L55.0238 213.914L55.5218 212.001L54.7748 209.173L52.949 206.512L47.6375 201.355L44.4838 199.276L42.658 198.444L40.4172 198.195L38.5084 198.694L38.1764 200.274L38.5914 202.104L39.5873 203.85L42.575 206.928L46.1437 209.922L45.3137 210.254L43.0729 209.839L39.0893 206.262L36.0186 202.852L35.1887 202.104L33.9438 202.187L33.6948 203.102L34.0268 204.1L36.8485 207.343L40.0022 210.254L40.4172 210.753H39.8363L10.125 193.371L8.13323 191.707L37.6785 178.899ZM44.4838 204.266L44.8988 203.684H46.1437L50.1273 207.842L49.6293 208.841L48.4674 209.09L44.4838 205.347V204.266ZM124.737 243.772L184.907 178.4L214.867 191.292L214.784 192.373L125.484 244.354L124.405 244.77L124.737 243.772ZM215.946 186.634L186.981 174.075V173.327L218.269 80.3425H219.016L218.85 133.072H218.186L217.689 137.314L208.559 128.831L207.48 129.08L205.655 132.906L205.904 133.987L217.772 145.215L218.684 145.382V185.054L215.946 186.634ZM114.197 5.07339L208.642 59.7994L113.699 47.6566V5.3229L114.197 5.07339ZM182.832 169.085L116.355 52.8963L216.112 65.954L217.44 67.7006L183.662 169.085H182.832Z" fill="#01579b"/>
</svg>
