<svg width="216" height="248" viewBox="0 0 216 248" fill="none" xmlns="http://www.w3.org/2000/svg">
<path d="M108.185 0.684753L107.5 0L107.25 0.144348L108.185 0.684753Z" fill="#01579b"/>
<path d="M81.3989 38.4188L80.071 38.7515L78.4943 37.5039L79.4901 34.5098L81.067 31.0999L83.6398 27.9393L85.1337 27.1077L86.4615 26.6918L87.4574 27.3572L87.7893 28.272L86.7935 31.4325L85.2996 34.5098L82.6438 37.5039L81.3989 38.4188Z" fill="#01579b"/>
<path fill-rule="evenodd" clip-rule="evenodd" d="M105.052 2.32288V44.8229L10.3577 57.049L10.2747 56.7994L88.1213 12.137L104.388 2.32288H105.052ZM73.7637 36.09L73.0997 39.6664L73.5146 41.8287L75.0916 43.0763L76.8344 43.5753L80.818 42.7437L84.1377 41.0802L88.5363 37.1713L91.192 32.9296L92.9349 28.8542L93.3499 25.9432L93.2668 24.1967L91.358 22.3669L89.4492 22.0343L85.9635 22.7828L83.3077 23.864L80.818 25.6937L78.4943 27.9393L75.4236 32.3474L73.7637 36.09ZM63.8876 30.5176L64.2196 29.5195L65.2985 28.272L67.7882 26.3591L69.5311 25.5273L72.2698 24.5293L73.8467 24.4462L74.9255 24.6957L75.0916 25.1116L75.3406 25.7769L74.7596 27.6067L66.7094 44.1576L65.9624 44.6566L65.1324 45.0724L62.8917 45.1555L62.4768 44.6566L61.8958 43.9081L68.2863 30.5176H67.7882L67.2073 30.7671L66.5433 31.0166L65.1324 31.7651L64.0536 31.5989L63.8876 30.5176Z" fill="#01579b"/>
<path d="M54.7584 90.4834L54.6755 88.6536L53.7626 87.1566L52.4347 86.3248L50.6089 85.9091L48.451 86.3248L46.5422 87.5724L45.3804 89.4854L44.9653 91.8141L45.3804 93.4775L46.1273 95.0577L47.6211 95.8063L49.198 96.3053L51.4388 95.8063L53.2646 94.5587L54.2605 92.6458L54.7584 90.4834Z" fill="#01579b"/>
<path d="M37.1642 87.9883L39.1559 87.406L41.1477 86.4081L41.7286 85.2437L41.8947 83.0812L40.8988 80.2534L39.9028 79.4218L37.994 78.9227L35.7533 79.7544L34.3424 81.2515L33.5955 83.8297L34.3424 85.8258L35.5873 87.406L37.1642 87.9883Z" fill="#01579b"/>
<path fill-rule="evenodd" clip-rule="evenodd" d="M10.3577 61.9559L102.728 49.8962L36.3342 166.085H35.4213L5.95911 77.6752L1.56042 63.8689L2.47339 62.954L10.3577 61.9559ZM48.1191 79.0059L50.9408 77.9247L54.5095 77.0929L58.4102 78.4237L60.402 80.3365L61.9788 83.0812L62.6427 86.0753L61.8129 89.9844L60.485 93.3943L56.6672 99.2994L52.2687 103.624L49.5299 105.038L46.2932 105.454L43.3055 104.705L40.8158 102.709L39.2389 99.7985L38.4091 95.3904L34.0934 96.5548L30.4418 95.3904L26.9561 91.731L26.6241 87.5724L27.3711 83.0812L30.7737 76.2612L35.5873 71.6869L40.7328 70.0234L43.8865 70.6057L46.2932 72.4354L47.7871 75.0969L48.1191 79.0059Z" fill="#01579b"/>
<path fill-rule="evenodd" clip-rule="evenodd" d="M0.315552 77.5919H0.813599L31.9357 170.743L31.5206 171.491L1.72644 183.551L0.315552 182.22V142.465L2.22437 144.544L5.37817 145.542L9.02979 144.211L11.8516 141.55L13.2623 137.807L13.5944 134.48L13.2623 131.07L12.6814 128.742L11.6855 126.33L10.0256 124.25L7.28699 123.086L4.29919 124.25L2.97131 126.33L2.47339 128.659L2.39038 131.07L2.72241 134.231L4.13318 136.643L5.8761 138.722L5.37817 139.138L4.46521 139.387L1.80945 137.558L0.315552 134.397V77.5919ZM9.1958 148.536L16.748 143.213L18.5739 146.956L18.4078 149.701L9.77673 156.105L9.52771 157.186L10.8556 158.766L11.4365 160.346L10.5237 162.925H8.86377L4.46521 156.021L4.54822 152.528L9.1958 148.536Z" fill="#01579b"/>
<path d="M6.54004 130.405L8.19983 129.656L9.61072 130.405L10.3577 132.152L9.94263 135.146L8.19983 136.643L6.54004 135.146L5.8761 132.152L6.54004 130.405Z" fill="#01579b"/>
<path d="M125.053 142.631L128.539 140.302L130.198 136.477L130.779 130.904L130.198 125.581L128.787 121.922L126.298 119.011H123.061L120.488 121.922L119.243 125.581L118.662 130.904L119.243 136.477L120.903 140.302L125.053 142.631Z" fill="#01579b"/>
<path fill-rule="evenodd" clip-rule="evenodd" d="M39.7369 169.162L107.542 51.7261L175.512 169.329L175.014 170.327L40.5668 170.244L39.7369 169.994V169.162ZM109.035 129.989L109.201 123.003L112.438 116.349L117.335 112.024L120.82 110.86L124.804 110.444L128.456 110.86L132.107 112.024L136.921 116.349L140.074 123.003L140.738 129.989L140.323 137.225L137.917 144.128L132.854 149.035L129.203 150.615L125.053 151.697L120.737 150.615L116.671 149.035L111.857 144.128L109.284 137.225L109.035 129.989ZM79.3242 116.765L79.6561 114.436L81.6479 112.108L85.8805 110.777L90.2792 110.527L96.4205 111.026L101.068 113.854L103.807 117.93L104.886 122.254L103.973 126.579L101.732 130.488L95.8396 136.227L89.5322 141.716H102.977L104.305 142.465L104.637 144.461L104.72 147.871L103.724 149.035L102.479 149.867H80.735L78.9092 148.619L78.1622 146.956L77.9133 144.461L78.1622 141.883L79.7391 138.556L94.4287 123.169L94.0138 121.423L92.105 119.676L89.0343 119.011L86.3785 119.26L83.8058 120.258L82.8098 121.256L81.3989 121.423L79.6561 120.009L79.3242 116.765Z" fill="#01579b"/>
<path d="M102.479 197.523H95.4247V205.341L102.479 197.523Z" fill="#01579b"/>
<path fill-rule="evenodd" clip-rule="evenodd" d="M40.7328 175.317L174.184 174.818L174.599 175.4L108.703 247.01L107.708 247.259L106.629 247.01L40.7328 175.317ZM116.256 186.795L119.907 186.462L123.31 186.795L124.721 189.123V205.924L127.045 204.926L130.032 204.427L131.443 205.425L132.024 206.672V208.668L131.277 210.249L129.12 211.33L125.302 212.411L121.401 212.993L118.745 212.827L117.003 211.496L116.256 210.031V186.795ZM83.8058 192.367H88.0383V187.294L88.9513 186.878L92.188 186.462L95.0096 187.294L95.8396 188.292V192.367H109.284L111.11 193.781L111.525 196.026V197.523L110.778 198.854L98.0804 212.411L96.2545 212.827H91.026L88.7853 211.746L88.0383 209.583V197.523H83.3907L82.5609 196.609L82.4779 194.862L82.5609 193.282L83.8058 192.367Z" fill="#01579b"/>
<path fill-rule="evenodd" clip-rule="evenodd" d="M33.6785 175.899H34.6743L94.5947 241.105L95.0096 241.77L94.1798 241.521L43.9695 212.328V211.912L45.3804 212.245L46.7913 212.411L48.2021 212.245L49.447 211.912L51.0238 210.914L51.5217 209.001L50.7749 206.173L48.949 203.512L43.6376 198.355L40.4838 196.276L38.658 195.444L36.4172 195.195L34.5084 195.694L34.1764 197.274L34.5914 199.104L35.5873 200.85L38.575 203.928L42.1437 206.922L41.3137 207.254L39.073 206.839L35.0894 203.262L32.0186 199.852L31.1887 199.104L29.9438 199.187L29.6948 200.102L30.0269 201.1L32.8485 204.343L36.0022 207.254L36.4172 207.753H35.8363L6.125 190.371L4.13318 188.707L33.6785 175.899ZM44.9653 195.694L44.8824 194.862L45.5464 194.28L48.1191 194.197L59.738 207.338V208.336H56.0863L44.9653 195.694Z" fill="#01579b"/>
<path d="M40.4838 201.266L40.8988 200.684H42.1437L46.1273 204.842L45.6293 205.84L44.4674 206.09L40.4838 202.347V201.266Z" fill="#01579b"/>
<path d="M176.591 194.779L171.445 199.686L176.591 201.848V194.779Z" fill="#01579b"/>
<path fill-rule="evenodd" clip-rule="evenodd" d="M120.737 240.772L180.907 175.4L210.867 188.292L210.784 189.373L121.484 241.354L120.405 241.77L120.737 240.772ZM168.292 198.106L176.176 189.705L177.919 188.707L179.994 188.208L181.239 188.707L181.985 189.705V201.848L181.156 203.512L177.006 207.338L175.512 207.753H173.354L166.549 204.926L164.059 207.753L162.731 208.086L161.237 207.753L160.823 206.755L163.312 203.595L160.656 202.431V201.848L165.055 197.44H166.964L168.292 198.106Z" fill="#01579b"/>
<path d="M208.626 154.275L207.547 155.273L206.219 154.608L205.555 152.362L205.804 150.948L207.215 149.617L208.626 150.948L208.958 152.612L208.626 154.275Z" fill="#01579b"/>
<path d="M202.734 149.451L201.24 150.283L199.912 149.118L199.497 147.455L199.663 144.96L201.24 143.546L203.066 144.794L203.314 147.455L202.734 149.451Z" fill="#01579b"/>
<path fill-rule="evenodd" clip-rule="evenodd" d="M211.946 183.634L182.981 171.075V170.327L214.269 77.3424H215.016L214.85 130.072H214.187L213.688 134.314L204.559 125.831L203.48 126.08L201.655 129.906L201.904 130.987L213.771 142.215L214.684 142.382V182.054L211.946 183.634ZM196.094 144.794L195.928 148.536L196.094 151.364L197.007 153.859L198.418 155.522L200.327 156.687L201.738 156.105L202.734 155.439L203.066 157.934L204.144 160.097L206.966 161.76L209.124 160.845L211.033 158.184L212.278 155.273L212.527 151.115L212.444 148.287L211.116 145.209L209.954 143.962L208.128 143.13L206.966 143.546L206.219 144.128L205.97 141.467L204.974 138.972L203.646 137.475L201.655 137.059L199.248 138.223L197.339 141.134L196.094 144.794Z" fill="#01579b"/>
<path fill-rule="evenodd" clip-rule="evenodd" d="M110.197 2.07336L204.642 56.7994L109.699 44.6566V2.32288L110.197 2.07336ZM120.737 21.2858L119.575 21.7848L119.077 22.2006V23.864L119.824 25.1947L121.318 26.0264L122.646 26.5254L123.642 26.0264H124.887L130.696 39.5L131.941 40.7476L133.269 41.3297L134.514 41.912H137.087L137.419 41.2466L130.53 25.0283L129.7 23.864L128.622 22.6996L127.045 21.7848L126.049 21.3689L124.223 20.8699L120.737 21.2858ZM144.307 29.1869L145.22 30.7671L139.991 36.0068L139.078 37.0049L138.996 38.0029L139.411 39.3336L140.655 41.1635L142.315 42.4941L143.892 42.8268L149.951 44.0743L155.926 45.0724L156.756 44.906L157.171 44.2407L156.756 42.9932L155.926 41.7456L155.013 40.9971L150.531 39.999L146.382 39.2505L150.697 36.0068L151.61 34.7593L152.025 33.1791L151.61 31.2661L150.615 29.3533L148.789 27.5234L146.548 26.0264L144.639 24.8621L142.315 23.7808L139.742 23.1155L136.672 22.866L135.261 23.1155L134.514 23.7808L134.016 24.6125L134.514 25.7769L135.759 27.5234L136.838 28.0225L137.834 27.5234L139.078 27.2739L140.821 27.3572L142.647 28.0225L144.307 29.1869Z" fill="#01579b"/>
<path fill-rule="evenodd" clip-rule="evenodd" d="M178.832 166.085L112.355 49.8962L212.112 62.954L213.44 64.7006L179.662 166.085H178.832ZM158.416 83.7466L160.823 84.0792L175.346 89.818L177.089 89.319L177.338 87.7388L176.259 85.3268L174.682 83.1644L172.524 81.1683L170.699 79.8375L170.284 78.0078L170.699 76.5107L172.441 75.0969L174.101 74.2651L176.84 75.5127L178.998 77.1761L181.073 79.4218L182.732 81.6674L185.305 86.5743L185.969 89.1526L186.384 91.731L186.218 94.8914L184.807 97.4697L182.068 99.0499L178.749 99.7985L175.346 99.0499L171.777 97.8024L165.553 94.8914L172.441 104.789L171.197 106.868L168.541 108.615L166.134 108.032L154.017 90.6497L153.353 89.1526L153.851 87.3229L154.93 85.3268L156.507 84.412L158.416 83.7466Z" fill="#01579b"/>
</svg>
