<svg width="396" height="385" viewBox="0 0 396 385" fill="none" xmlns="http://www.w3.org/2000/svg">
<path fill-rule="evenodd" clip-rule="evenodd" d="M158.386 94.3017C146.583 99.067 131.98 106.931 131.98 106.931L131.011 115.55L191.981 214.909L255.149 115.438L254.329 106.819C254.329 106.819 239.374 98.635 227.774 94.3017C215.063 89.5538 189.281 86 189.281 86C189.281 86 171.464 89.0219 158.386 94.3017ZM211.313 145.038C210.227 149.794 208.053 152.076 203.882 155.07C198.93 158.626 189.188 158.756 189.188 158.756V158.702C187.944 158.557 179.205 157.46 174.439 154.727C169.954 152.155 168.236 148.762 167.064 143.72C166.059 139.392 165.612 118.61 167.064 112.08C168.124 107.318 170.285 105.024 174.439 102.006C179.201 98.5467 188.653 98.4634 189.302 98.4618V98.4245C189.302 98.4245 199.054 99.3747 204.177 102.351C208.647 104.948 210.347 108.35 211.49 113.399C212.471 117.733 212.802 138.517 211.313 145.038ZM179.579 112.08C182.687 109.612 185.277 108.349 189.302 108.349C192.846 108.349 194.855 109.986 197.539 112.173C197.995 112.544 198.47 112.931 198.976 113.329C201.794 115.546 199.846 144.145 198.799 144.968C195.769 147.346 193.325 149.199 189.281 149.069C185.829 148.958 183.81 147.252 181.453 145.26L181.453 145.259C180.859 144.757 180.244 144.237 179.579 143.72C176.748 141.518 178.536 112.909 179.579 112.08ZM298.906 197.036C298.261 209.768 296.038 224.235 296.038 224.235L286.429 232.668L194.508 216.027L256.111 115.997L267.695 117.377C267.695 117.377 276.133 128.738 284.008 138.309C292.635 148.795 296.038 162.635 296.038 162.635C296.038 162.635 299.62 182.929 298.906 197.036ZM86.0942 197.037C86.7389 209.769 88.9621 224.237 88.9621 224.237L98.5712 232.669L190.492 216.028L128.889 115.998L117.305 117.378C117.305 117.378 108.867 128.739 100.992 138.31C92.3645 148.796 88.9621 162.636 88.9621 162.636C88.9621 162.636 85.3799 182.93 86.0942 197.037ZM180.06 298C180.06 298 162.958 291.725 150.972 287.441C137.692 282.695 130.338 275.688 130.338 275.688C130.338 275.688 120.028 268.164 110.897 258.115C102.591 248.974 98.5313 243.377 98.5313 243.377V234.46L191.008 217.477L191.606 298H180.06ZM233.56 287.415C221.574 291.699 204.471 297.974 204.471 297.974H192.926L193.524 217.451L286 234.434V243.351C286 243.351 281.941 248.948 273.635 258.089C264.504 268.138 254.193 275.662 254.193 275.662C254.193 275.662 246.84 282.669 233.56 287.415ZM273.175 197.82C281.753 197.82 288.706 187.213 288.706 174.128C288.706 161.043 281.753 150.436 273.175 150.436C266.453 150.436 260.729 156.949 258.567 166.065C257.289 165.413 255.928 165.062 254.515 165.062C247.151 165.062 241.182 174.617 241.182 186.403C241.182 198.19 247.151 207.745 254.515 207.745C259.829 207.745 264.417 202.769 266.56 195.57C268.567 197.013 270.809 197.82 273.175 197.82ZM264.903 173.021C266.263 175.723 267.22 178.966 267.628 182.517C268.984 184.15 270.738 185.135 272.654 185.135C276.953 185.135 280.438 180.174 280.438 174.053C280.438 167.933 276.953 162.972 272.654 162.972C268.599 162.972 265.268 167.385 264.903 173.021ZM254.515 175.956C255.76 175.956 256.91 176.694 257.844 177.946C258.197 181.27 259.004 184.362 260.164 187.07C259.967 192.491 257.513 196.776 254.515 196.776C251.389 196.776 248.854 192.115 248.854 186.366C248.854 180.617 251.389 175.956 254.515 175.956ZM261.219 255.055L239.99 268.823L249.972 249.272C249.972 249.272 249.622 246.239 248.37 244.944C246.949 243.475 243.416 243.265 243.416 243.265C243.416 243.265 236.606 243.877 232.541 245.354C228.815 246.708 223.602 250.168 223.602 250.168C223.602 250.168 216.593 254.809 214.328 258.301C212.363 261.333 215.073 266.995 215.073 266.995C215.073 266.995 218.776 270.139 220.883 268.487C222.926 266.886 220.883 263.711 220.883 263.711C220.883 263.711 220.008 261.293 220.623 259.719C221.599 257.22 227.029 254.011 227.029 254.011L235.67 250.69C235.67 250.69 238.28 250.214 239.32 251.212C240.064 251.928 240.288 253.675 240.288 253.675L228.667 278.039C228.667 278.039 227.841 280.343 228.667 281.322C229.645 282.479 232.541 281.322 232.541 281.322L262.858 260.428L261.219 255.055ZM101.662 175.285L108.366 178.941L112.315 159.801C112.315 159.801 112.851 154.228 115.48 153.234C118.006 152.279 120.769 156.144 120.769 156.144L137.306 195.694C137.306 195.694 139.088 200.802 137.082 203.193C135.293 205.327 130.825 205.171 130.825 205.171L111.495 193.157L108.776 198.679C108.776 198.679 105.515 201.567 103.599 200.581C101.66 199.583 102.184 195.171 102.184 195.171L104.828 189.5L97.5282 185.098C97.5282 185.098 94.6007 180.724 95.6288 178.232C96.7037 175.627 101.662 175.285 101.662 175.285ZM131.011 193.53L118.087 166.256L114.624 182.523L131.011 193.53ZM137.716 248.862L131.98 255.354C131.98 255.354 130.419 260.199 131.496 263.264C132.753 266.844 142.073 272.144 142.073 272.144C142.073 272.144 147.356 275.648 152.39 276.434C156.852 277.132 162.031 277.718 164.718 273.561C167.057 269.943 167.144 267.612 165.314 263.711C163.41 259.653 156.934 255.876 156.934 255.876L149.187 251.473C149.187 251.473 150.42 250.287 151.31 250.093C152.29 249.879 154.401 250.354 154.401 250.354C154.401 250.354 163.678 253.398 165.947 258.003C166.945 260.027 165.947 260.316 165.947 260.316C165.947 260.316 166.457 262.709 167.549 263.413C168.973 264.332 172.39 263.711 172.39 263.711C172.39 263.711 176.418 260.862 173.731 257.592C168.703 251.473 157.679 247.108 157.679 247.108C157.679 247.108 150.416 244.045 147.362 244.272C144.461 244.489 143.36 244.594 141.105 246.138C139.771 247.051 137.716 248.862 137.716 248.862ZM141.105 261.323C140.977 258.039 145.574 255.093 145.574 255.093L153.47 259.383C153.47 259.383 158.069 261.608 157.902 264.532C157.783 266.62 156.003 268.114 156.003 268.114C156.003 268.114 149.205 269.917 145.574 267.442C143.13 265.777 141.227 264.466 141.105 261.323ZM146.766 278.897L131.868 268.45C131.868 268.45 129.296 267.153 128.591 268.226C128.102 268.97 128.74 270.502 128.74 270.502L144.382 280.986C144.382 280.986 146.262 281.689 146.878 280.986C147.416 280.372 146.766 278.897 146.766 278.897Z" fill="#01579b"/>
<path d="M285 361.36C277 365.752 226.025 385 192.5 385C86.1852 385 0 298.815 0 192.5C0 86.1852 86.1852 0 192.5 0C298.815 0 385 86.1852 385 192.5C385 219.298 379.524 244.818 369.63 268L396 280.5L334.5 312L315.5 242L340 254.5C352.144 231.863 353 219.486 353 192C353 103.082 280.918 31 192 31C103.082 31 31 103.082 31 192C31 280.918 103.082 353 192 353C226.645 353 268.884 336.5 271 335C273.116 333.5 286.628 331.563 291 338C296.293 345.791 293 356.969 285 361.36Z" fill="#01579b"/>
</svg>
