<svg width="292" height="292" viewBox="0 0 292 292" fill="none" xmlns="http://www.w3.org/2000/svg">
<circle cx="146.5" cy="146.5" r="139.5" fill="#F1761D"/>
<path d="M52 119H238C238 119 259.5 119 259.5 146C259.5 173 238 173 238 173H52C52 173 32 173 32 146C32 119 52 119 52 119Z" fill="#0F0F0F"/>
<path d="M118.75 239.75V53.7502C118.75 53.7502 118.75 32.2502 145.75 32.2502C172.75 32.2502 172.75 53.7502 172.75 53.7502V239.75C172.75 239.75 172.75 259.75 145.75 259.75C118.75 259.75 118.75 239.75 118.75 239.75Z" fill="#0F0F0F"/>
</svg>
