<svg width="292" height="292" viewBox="0 0 292 292" fill="none" xmlns="http://www.w3.org/2000/svg">
<path d="M5.22213 5.17287C5.11751 5.26051 5.01266 5.34987 4.90755 5.44069C1.04586 8.77785 -0.0922026 12.3137 0.0553804 15.4956C-0.51774 22.1944 4.61324 26.405 4.61324 26.405L114.587 136.34C114.587 136.34 119.721 140.939 119.744 146.639C119.757 149.859 118.122 152.716 116.69 154.599L4.97018 265.771C4.97018 265.771 0.339438 270.423 0.0564791 276.279C-0.261758 279.608 0.699667 283.494 4.61336 287.386C14.9268 297.643 25.1994 287.428 25.1994 287.428L137.982 174.778C139.871 173.341 142.781 171.659 146.047 171.655C149.135 171.652 151.884 173.163 153.762 174.555L189.275 210.027L265.888 287.193C265.888 287.193 276.113 297.539 286.443 287.214C289.835 283.825 291.002 280.433 291.042 277.408C291.501 270.911 286.5 265.938 286.5 265.938L209.946 189.468L174.195 153.456C172.811 151.575 171.315 148.826 171.328 145.745C171.338 143.143 172.414 140.771 173.58 138.96L253.377 58.5813L286.458 25.5115C286.458 25.5115 291.438 21.4251 291.038 14.8992C291.127 11.7488 290.027 8.16457 286.443 4.58302C284.972 3.11281 283.503 2.06178 282.066 1.34035C281.077 0.822281 280.092 0.481949 279.124 0.283707C271.772 -1.34984 265.888 4.60402 265.888 4.60402L225.841 44.9407L152.76 117.936C150.965 119.093 148.623 120.145 146.047 120.142C140.347 120.136 135.733 115.016 135.733 115.016L25.4631 5.37794C25.4631 5.37794 20.8513 -0.207016 13.6287 0.968033C10.921 1.09425 8.01156 2.21901 5.22213 5.17287Z" fill="#01579B"/>
</svg>
