<svg width="397" height="498" viewBox="0 0 397 498" fill="none" xmlns="http://www.w3.org/2000/svg">
<path d="M46.6985 71H272.726C272.726 71 294.773 71 320.293 96.5366C338 114.256 338 141.53 338 141.53C338 141.53 337.761 169.925 333.66 189.823C329.409 210.447 316.3 244.024 316.3 244.024C316.3 244.024 287.641 302.446 273.768 341.653C265.529 364.936 255.193 402.107 255.193 402.107H239.395C239.395 402.107 247.547 364.826 255.193 341.653C268.319 301.87 299.634 244.024 299.634 244.024C299.634 244.024 313.768 211.754 318.21 189.823C321.968 171.265 322.55 141.53 322.55 141.53C322.55 141.53 322.55 120.51 309.009 106.96C290.796 88.7341 272.726 87.3295 272.726 87.3295H46.6985C46.6985 87.3295 31.8346 91.5967 25.1721 98.2738C18.1018 105.36 14.0616 121.378 14.0616 121.378C14.0616 121.378 13.4256 145.633 21.3528 156.469C24.213 160.379 30.3801 163.766 30.3801 163.766H40.2753L51.0385 153.516C51.0385 153.516 54.0394 146.458 53.9897 141.703C53.9317 136.147 49.0779 133.681 49.6497 128.153C50.0843 123.953 53.9897 118.251 53.9897 118.251L61.6281 113.908H90.0986C90.0986 113.908 86.5793 104.837 82.6338 100.185C76.1861 92.5816 60.5865 87.3295 60.5865 87.3295H91.661C91.661 87.3295 98.7561 95.0398 101.903 100.88C104.491 105.681 105.31 108.702 106.938 113.908C112.761 132.531 112.854 144.429 110.236 163.766C109.335 170.424 106.764 180.616 106.764 180.616C106.764 180.616 101.508 216.664 94.0914 238.638C86.5698 260.923 68.5722 293.186 68.5722 293.186C68.5722 293.186 41.9904 346.812 32.8105 383.693C27.8538 403.607 23.7833 435.461 23.7833 435.461C23.7833 435.461 22.6153 459.594 31.7689 469.858C38.8161 477.76 56.7673 482.192 56.7673 482.192H64.5794C64.5794 482.192 77.0082 476.557 81.9394 469.858C85.2871 465.31 87.8418 456.655 87.8418 456.655H51.7329C51.7329 456.655 42.931 454.625 39.4073 450.575C34.6651 445.124 36.2825 432.334 36.2825 432.334C36.2825 432.334 37.8501 416.602 44.7889 410.098C52.301 403.057 71.0026 402.107 71.0026 402.107H272.032C272.032 402.107 294.497 410.341 302.586 422.085C308.987 431.379 311.092 449.706 311.092 449.706H295.468C295.468 449.706 293.348 437.098 288.871 430.597C284.083 423.644 272.032 417.047 272.032 417.047H100.167H71.0026C71.0026 417.047 60.0329 416.843 55.5521 420.695C51.3387 424.317 51.2121 432.856 51.2121 432.856L51.7329 441.889H90.9666C90.9666 441.889 91.5257 432.424 88.7098 427.47C84.7434 420.492 71.0026 417.047 71.0026 417.047H100.167C100.167 417.047 105.422 428.586 106.243 436.504C107.059 444.366 104.334 456.655 104.334 456.655C104.334 456.655 102.493 464.977 100.167 469.858C97.6669 475.106 91.8346 482.192 91.8346 482.192H272.032C272.032 482.192 284.894 476.799 289.739 469.51C294.093 462.961 295.468 449.706 295.468 449.706H311.092C311.092 449.706 310.261 468.607 303.974 478.196C295.924 490.474 272.032 498 272.032 498H56.7673C56.7673 498 29.5501 492.195 19.096 479.586C7.79852 465.959 8.68002 435.461 8.68002 435.461C8.68002 435.461 10.1646 407.612 16.1448 383.693C24.4151 350.615 51.9065 293.186 51.9065 293.186C51.9065 293.186 68.9124 260.85 76.7314 238.638C84.4726 216.647 91.661 180.616 91.661 180.616L94.0914 163.766V130.064H66.1418L68.5722 141.703C68.5722 141.703 69.598 150.2 67.7042 155.08C66.2062 158.939 61.6281 163.766 61.6281 163.766H94.0914L91.661 180.616H30.3801C30.3801 180.616 16.6539 172.385 10.5896 164.461C0.0625976 150.705 0 121.378 0 121.378C0 121.378 3.32428 97.8754 12.8464 87.3295C22.6854 76.4328 46.6985 71 46.6985 71Z" fill="#01579B"/>
<path d="M149.123 154.906H293.558C293.558 154.906 300.329 154.906 300.329 162.984C300.329 171.062 293.558 171.062 293.558 171.062H149.123C149.123 171.062 143.047 171.062 143.047 162.55C143.047 154.902 149.123 154.906 149.123 154.906Z" fill="#01579B"/>
<path d="M134.019 215.707H278.455C278.455 215.707 285.225 215.707 285.225 223.785C285.225 231.863 278.455 231.863 278.455 231.863H134.019C134.019 231.863 127.944 231.863 127.943 223.351C127.943 215.704 134.019 215.707 134.019 215.707Z" fill="#01579B"/>
<path d="M108.327 276.509H252.762C252.762 276.509 259.533 276.509 259.533 284.587C259.533 292.665 252.762 292.665 252.762 292.665H108.327C108.327 292.665 102.251 292.665 102.251 284.153C102.251 276.505 108.327 276.509 108.327 276.509Z" fill="#01579B"/>
<path d="M79.5089 339.395H223.944C223.944 339.395 230.715 339.395 230.715 347.473C230.715 355.551 223.944 355.551 223.944 355.551H79.5089C79.5089 355.551 73.433 355.551 73.433 347.039C73.433 339.391 79.5089 339.395 79.5089 339.395Z" fill="#01579B"/>
<path fill-rule="evenodd" clip-rule="evenodd" d="M105.699 0H331.726C331.726 0 353.773 0 379.293 25.5366C397 43.2559 397 70.5297 397 70.5297C397 70.5297 396.761 98.9249 392.66 118.823C388.409 139.447 375.3 173.024 375.3 173.024C375.3 173.024 346.641 231.446 332.768 270.653C324.529 293.936 314.193 331.107 314.193 331.107H331.032C331.032 331.107 353.497 339.341 361.586 351.085C367.987 360.379 370.092 378.706 370.092 378.706C370.092 378.706 369.261 397.607 362.974 407.196C354.924 419.474 331.032 427 331.032 427H295L282 415L273.193 411.192H331.032C331.032 411.192 343.894 405.799 348.739 398.51C353.093 391.961 354.468 378.706 354.468 378.706C354.468 378.706 352.348 366.098 347.871 359.597C343.083 352.644 331.032 346.047 331.032 346.047H267.484L273.795 331.107H298.395C298.395 331.107 306.547 293.826 314.193 270.653C327.319 230.87 358.634 173.024 358.634 173.024C358.634 173.024 372.768 140.754 377.21 118.823C380.968 100.265 381.55 70.5297 381.55 70.5297C381.55 70.5297 381.55 49.5098 368.009 35.9597C349.796 17.7341 331.726 16.3295 331.726 16.3295H150.661C150.661 16.3295 157.756 24.0398 160.903 29.8796C163.239 34.2138 164.134 37.0973 165.483 41.4471C165.629 41.916 165.779 42.4019 165.938 42.9085C169.895 55.5628 171.205 65.112 170.818 76H153.091V59.0643H125.142L127.572 70.7034C127.572 70.7034 127.856 73.058 127.849 76H112.216C112.669 74.2141 113.007 72.3249 112.99 70.7034C112.962 68.0489 111.84 66.0997 110.737 64.1851C109.532 62.0919 108.351 60.0401 108.65 57.1534C109.084 52.9533 112.99 47.2514 112.99 47.2514L120.628 42.9085H149.099C149.099 42.9085 145.579 33.8372 141.634 29.1847C135.186 21.5816 119.587 16.3295 119.587 16.3295H105.699C105.699 16.3295 90.8346 20.5967 84.1721 27.2738C77.1018 34.3595 73.0616 50.3784 73.0616 50.3784C73.0616 50.3784 72.6915 64.4945 76.0355 76H62.1221C59.0276 63.2918 59 50.3784 59 50.3784C59 50.3784 62.3243 26.8754 71.8464 16.3295C81.6854 5.43281 105.699 0 105.699 0ZM311.839 100.062L309.5 95.5L286.015 83.906H352.558C352.558 83.906 359.329 83.906 359.329 91.9839C359.329 100.062 352.558 100.062 352.558 100.062H311.839ZM328.08 160.863L328.95 144.707H337.455C337.455 144.707 344.225 144.707 344.225 152.785C344.225 160.863 337.455 160.863 337.455 160.863H328.08Z" fill="#01579B"/>
</svg>
