<svg width="408" height="232" viewBox="0 0 408 232" fill="none" xmlns="http://www.w3.org/2000/svg">
<path d="M161.5 5C161.5 5 184 1 202 0C291.069 4.68006 364.5 50 408 116.5C408 116.5 362.507 176.011 322 199C268 229.647 202 231.5 202 231.5C202 231.5 142.5 228.837 96 202.5C49.5 176.163 0 116.5 0 116.5H33C33 116.5 65.2182 151.132 87.5 166.5C109.573 181.724 145 194 145 194C145 194 104.181 163.5 105.5 113C106.715 66.5 146.5 37 146.5 37C146.5 37 112 49.0492 85.5 67C53.0223 89 33 116.5 33 116.5H0C0 116.5 41.753 70.1715 72 46.5C95 28.5 148.5 7 161.5 5C161.5 16.3252 161.5 34 161.5 34L207 42C207 42 133.608 41.8787 130 113C126.5 182 205 191 205 191C205 191 277.5 185.5 279 116.5C280.456 49.5158 207 42 207 42L161.5 34L263 37C263 37 304.5 72 303 119C301.5 166 263 195.5 263 195.5C263 195.5 299.862 181.507 322 166.5C345.429 150.618 377 116.5 377 116.5C377 116.5 349.946 84.8531 328.5 69.5C305.282 52.8777 263 37 263 37L161.5 34C161.5 34 161.5 16.3252 161.5 5Z" fill="#01579B"/>
<path d="M166 102C166 102 186.241 110.759 195.5 102C204.022 93.9387 200 75 200 75H204.5C204.5 75 225.045 76.9981 234 87.5C242.495 97.4625 248.378 109.043 246.5 122C244.881 133.17 240.507 139.583 232 147C223.282 154.602 216.066 158.074 204.5 158C193.115 157.927 186.01 154.564 177.5 147C169.137 139.566 163.5 122 163.5 122C163.5 122 163.098 116.462 163.5 112.5C163.932 108.239 166 102 166 102Z" fill="#01579B"/>
</svg>
