<svg width="161" height="291" viewBox="0 0 161 291" fill="none" xmlns="http://www.w3.org/2000/svg">
<path d="M161 145.317C161 139.618 155.843 135.018 155.843 135.018L25.1995 4.52794C25.1995 4.52794 14.9269 -5.68752 4.61338 4.56942C-5.74237 14.8684 4.57173 25.1247 4.57173 25.1247L114.587 135.018C114.587 135.018 119.767 139.595 119.744 145.317C119.721 151.017 114.587 155.615 114.587 155.615L4.61328 265.551C4.61328 265.551 -5.74233 274.049 4.61328 286.106C14.0699 297.117 25.1995 286.106 25.1995 286.106L155.843 155.615C155.843 155.615 161 151.016 161 145.317Z" fill="#01579b"/>
</svg>
