<svg width="431" height="394" viewBox="0 0 431 394" fill="none" xmlns="http://www.w3.org/2000/svg">
<path d="M254.177 392.94C353.317 382.661 430.621 298.858 430.621 197C430.621 88.2 342.421 0 233.621 0C124.821 0 36.6208 88.2 36.6208 197C36.6208 198.645 36.641 200.285 36.6811 201.92C57.3552 191.722 80.5783 186 105.121 186C111.188 186 117.175 186.35 123.062 187.03C128.104 130.398 175.677 86 233.621 86C294.924 86 344.621 135.696 344.621 197C344.621 250.332 307.009 294.879 256.864 305.563C221.621 313.071 211.121 331.5 211.121 352C211.121 379 221.621 396.316 254.177 392.94Z" fill="#01579B"/>
<path d="M165.724 187.32C174.671 172.726 164.258 153.955 147.14 153.821L22.2043 152.845C5.36005 152.713 -5.37711 170.786 2.79437 185.516L62.4243 293.006C70.5957 307.736 91.6129 308.193 100.418 293.833L165.724 187.32Z" fill="#01579B"/>
<path d="M137.16 112.527C137.16 112.527 149.415 95.8236 159.991 88.424C164.491 85.2756 172.143 81.3939 172.143 81.3939C172.143 81.3939 175.101 83.9979 177.421 84.6579C179.73 85.3146 183.559 84.6579 183.559 84.6579L205.408 112.527C205.408 112.527 207.53 116.404 209.09 119.809C215.044 132.798 230.203 151.068 230.203 151.068C230.203 151.068 222.081 166.172 234.131 142.406C235.849 139.016 249.289 114.249 260.276 96.333C264.613 89.2601 265.922 83.4025 265.922 83.4025L271.569 77L293.663 89.0517L312.198 103.614L295.382 125.96C295.382 125.96 290.89 123.676 287.772 123.198C285.354 122.828 281.511 123.198 281.511 123.198L284.948 126.462L288.753 131.233C288.753 131.233 288.739 132.423 288.999 133.116C289.246 133.776 289.981 134.622 289.981 134.622V140.523L278.934 151.821C278.934 151.821 271.657 159.683 269.482 166.007C268.695 168.295 267.518 173.037 267.518 173.037C267.518 173.037 277.925 170.751 284.703 170.401C291.22 170.064 301.397 171.154 301.397 171.154C304.315 169.981 306.031 169.635 309.252 169.648L317.476 175.673C317.476 175.673 319.197 172.728 320.668 171.154C322.298 169.41 325.455 167.388 325.455 167.388C325.455 167.388 330.076 168.186 333.188 167.765C336.092 167.371 340.43 165.63 340.43 165.63L346.077 167.388C346.077 167.388 347.778 169.679 348.9 173.916C351.771 184.759 350.864 206.682 350.864 206.682C350.864 206.682 347.115 209.909 342.026 211.327C329.133 214.917 305.324 205.05 305.324 205.05C300.867 209.203 298.595 210.399 292.804 211.954C287.014 213.509 282.141 210.315 276.97 209.82C271.622 209.308 265.309 209.82 265.309 209.82L288.385 231.287C288.385 231.287 290.24 234.786 291.577 236.936C292.925 239.106 295.259 242.335 295.259 242.335L293.663 246.101L297.346 255.767L299.924 252.629L303.606 250.118L310.48 259.91L323.123 277.485C323.123 277.485 321.797 281.431 319.072 285.018C309.758 297.282 284.826 309.623 284.826 309.623C284.826 309.623 280.463 301.642 277.829 296.944C272.749 287.885 268.674 283.509 263.222 275.728C259.491 270.404 255.612 263.425 255.612 263.425L254.261 259.91C254.261 259.91 253.833 256.993 252.788 255.265C251.287 252.782 248.247 251.499 248.247 251.499C248.247 251.499 243.846 248.059 241.496 246.101C239.077 244.086 238.469 243.12 236.586 240.577C233.269 236.099 230.326 227.647 230.326 227.647C230.326 227.647 226.103 232.133 223.329 235.555C220.539 238.998 216.455 244.594 216.455 244.594C216.455 244.594 213.343 245.111 211.422 245.724C209.493 246.34 206.635 247.733 206.635 247.733C206.635 247.733 206.088 254.398 204.303 258.152C203.871 259.06 203.076 260.412 203.076 260.412C203.076 260.412 203.11 264.1 202.83 266.438C202.659 267.87 201.971 270.079 201.971 270.079C201.971 270.079 195.367 276.577 191.66 281.879C188.043 287.052 185.645 292.801 185.645 292.801C185.645 292.801 182.009 301.223 180.367 303.849C178.684 306.541 175.089 310 175.089 310C175.089 310 170.971 308.141 167.11 305.104C157.174 297.286 140.842 280.875 140.842 280.875C140.842 280.875 147.932 270.042 152.749 263.3C157.749 256.3 166.006 245.724 166.006 245.724L173.002 249.114C173.002 249.114 174.557 244.752 174.966 241.832C175.47 238.241 174.007 236.068 174.844 232.543C175.305 230.596 176.685 227.772 176.685 227.772C176.685 227.772 179.9 225.167 182.208 222.625C185.236 219.292 189.942 212.456 189.942 212.456L178.035 210.448C178.035 210.448 164.732 217.276 158.518 213.586C157.133 212.763 156.922 212.08 156.922 212.08C156.922 212.08 153.864 211.53 151.89 211.578C149.904 211.626 146.857 212.331 146.857 212.331L143.666 215.093C143.666 215.093 135.533 214.929 130.286 215.469C125.029 216.011 116.907 217.855 116.907 217.855L113.224 216.097C113.224 216.097 107.301 198.146 108.069 186.846C108.379 182.279 110.278 177.054 110.278 177.054C110.278 177.054 122.1 176.897 129.672 177.054C136.915 177.205 148.207 177.808 148.207 177.808L151.399 181.197L158.886 175.171L175.335 176.301L187.855 176.803L183.19 167.639C183.19 167.639 181.205 166.158 180.122 165.003C179.034 163.842 177.667 161.739 177.667 161.739C177.667 161.739 172.459 158.755 170.547 155.587C168.703 152.532 168.338 146.674 168.338 146.674L166.865 145.419C166.865 145.419 167.753 139.737 167.97 136.003C168.186 132.276 167.97 126.462 167.97 126.462C167.97 126.462 164.499 129.465 162.078 131.107C159.734 132.697 155.818 134.748 155.818 134.748C155.818 134.748 149.643 128.418 145.998 124.077C142.349 119.732 137.16 112.527 137.16 112.527Z" fill="white"/>
</svg>
