<svg width="161" height="291" viewBox="0 0 161 291" fill="none" xmlns="http://www.w3.org/2000/svg">
<path d="M1.17495e-06 145.683C-0.000231079 151.382 5.15698 155.982 5.15698 155.982L135.801 286.472C135.801 286.472 146.073 296.688 156.387 286.431C166.742 276.132 156.428 265.875 156.428 265.875L46.4128 155.982C46.4128 155.982 41.2325 151.405 41.2559 145.683C41.2791 139.983 46.4128 135.385 46.4128 135.385L156.387 25.4492C156.387 25.4492 166.742 16.9509 156.387 4.89361C146.93 -6.11695 135.801 4.89351 135.801 4.89351L5.15698 135.385C5.15698 135.385 0.000233419 139.984 1.17495e-06 145.683Z" fill="#01579b"/>
</svg>
