<svg width="431" height="394" viewBox="0 0 431 394" fill="none" xmlns="http://www.w3.org/2000/svg">
<path d="M254.177 392.94C353.317 382.661 430.621 298.858 430.621 197C430.621 88.2 342.421 0 233.621 0C124.821 0 36.6208 88.2 36.6208 197C36.6208 198.645 36.641 200.285 36.6811 201.92C57.3552 191.722 80.5783 186 105.121 186C111.188 186 117.175 186.35 123.062 187.03C128.104 130.398 175.677 86 233.621 86C294.924 86 344.621 135.696 344.621 197C344.621 250.332 307.009 294.879 256.864 305.563C221.621 313.071 211.121 331.5 211.121 352C211.121 379 221.621 396.316 254.177 392.94Z" fill="#01579B"/>
<path d="M165.724 187.32C174.671 172.726 164.258 153.955 147.14 153.821L22.2043 152.845C5.36005 152.713 -5.37711 170.786 2.79437 185.516L62.4243 293.006C70.5957 307.736 91.6129 308.193 100.418 293.833L165.724 187.32Z" fill="#01579B"/>
</svg>
