<svg width="338" height="427" viewBox="0 0 338 427" fill="none" xmlns="http://www.w3.org/2000/svg">
<path d="M46.6985 0H272.726C272.726 0 294.773 0 320.293 25.5366C338 43.2559 338 70.5297 338 70.5297C338 70.5297 337.761 98.9249 333.66 118.823C329.409 139.447 316.3 173.024 316.3 173.024C316.3 173.024 287.641 231.446 273.768 270.653C265.529 293.936 255.193 331.107 255.193 331.107H239.395C239.395 331.107 247.547 293.826 255.193 270.653C268.319 230.87 299.634 173.024 299.634 173.024C299.634 173.024 313.768 140.754 318.21 118.823C321.968 100.265 322.55 70.5297 322.55 70.5297C322.55 70.5297 322.55 49.5098 309.009 35.9597C290.796 17.7341 272.726 16.3295 272.726 16.3295H46.6985C46.6985 16.3295 31.8346 20.5967 25.1721 27.2738C18.1018 34.3595 14.0616 50.3784 14.0616 50.3784C14.0616 50.3784 13.4256 74.6335 21.3528 85.4695C24.213 89.3791 30.3801 92.7657 30.3801 92.7657H40.2753L51.0385 82.5163C51.0385 82.5163 54.0394 75.4583 53.9897 70.7034C53.9317 65.1469 49.0779 62.6806 49.6497 57.1534C50.0843 52.9533 53.9897 47.2514 53.9897 47.2514L61.6281 42.9085H90.0986C90.0986 42.9085 86.5793 33.8372 82.6338 29.1847C76.1861 21.5816 60.5865 16.3295 60.5865 16.3295H91.661C91.661 16.3295 98.7561 24.0398 101.903 29.8796C104.491 34.681 105.31 37.7021 106.938 42.9085C112.761 61.5312 112.854 73.4292 110.236 92.7657C109.335 99.4239 106.764 109.616 106.764 109.616C106.764 109.616 101.508 145.664 94.0914 167.638C86.5698 189.923 68.5722 222.186 68.5722 222.186C68.5722 222.186 41.9904 275.812 32.8105 312.693C27.8538 332.607 23.7833 364.461 23.7833 364.461C23.7833 364.461 22.6153 388.594 31.7689 398.858C38.8161 406.76 56.7673 411.192 56.7673 411.192H64.5794C64.5794 411.192 77.0082 405.557 81.9394 398.858C85.2871 394.31 87.8418 385.655 87.8418 385.655H51.7329C51.7329 385.655 42.931 383.625 39.4073 379.575C34.6651 374.124 36.2825 361.334 36.2825 361.334C36.2825 361.334 37.8501 345.602 44.7889 339.098C52.301 332.057 71.0026 331.107 71.0026 331.107H272.032C272.032 331.107 294.497 339.341 302.586 351.085C308.987 360.379 311.092 378.706 311.092 378.706H295.468C295.468 378.706 293.348 366.098 288.871 359.597C284.083 352.644 272.032 346.047 272.032 346.047H100.167H71.0026C71.0026 346.047 60.0329 345.843 55.5521 349.695C51.3387 353.317 51.2121 361.856 51.2121 361.856L51.7329 370.889H90.9666C90.9666 370.889 91.5257 361.424 88.7098 356.47C84.7434 349.492 71.0026 346.047 71.0026 346.047H100.167C100.167 346.047 105.422 357.586 106.243 365.504C107.059 373.366 104.334 385.655 104.334 385.655C104.334 385.655 102.493 393.977 100.167 398.858C97.6669 404.106 91.8346 411.192 91.8346 411.192H272.032C272.032 411.192 284.894 405.799 289.739 398.51C294.093 391.961 295.468 378.706 295.468 378.706H311.092C311.092 378.706 310.261 397.607 303.974 407.196C295.924 419.474 272.032 427 272.032 427H56.7673C56.7673 427 29.5501 421.195 19.096 408.586C7.79852 394.959 8.68002 364.461 8.68002 364.461C8.68002 364.461 10.1646 336.612 16.1448 312.693C24.4151 279.615 51.9065 222.186 51.9065 222.186C51.9065 222.186 68.9124 189.85 76.7314 167.638C84.4726 145.647 91.661 109.616 91.661 109.616L94.0914 92.7657V59.0643H66.1418L68.5722 70.7034C68.5722 70.7034 69.598 79.2001 67.7042 84.0797C66.2062 87.9394 61.6281 92.7657 61.6281 92.7657H94.0914L91.661 109.616H30.3801C30.3801 109.616 16.6539 101.385 10.5896 93.4605C0.0625976 79.7046 0 50.3784 0 50.3784C0 50.3784 3.32428 26.8754 12.8464 16.3295C22.6854 5.43281 46.6985 0 46.6985 0Z" fill="#01579B"/>
<path d="M149.123 83.906H293.558C293.558 83.906 300.329 83.906 300.329 91.9839C300.329 100.062 293.558 100.062 293.558 100.062H149.123C149.123 100.062 143.047 100.062 143.047 91.5496C143.047 83.9022 149.123 83.906 149.123 83.906Z" fill="#01579B"/>
<path d="M134.019 144.707H278.455C278.455 144.707 285.225 144.707 285.225 152.785C285.225 160.863 278.455 160.863 278.455 160.863H134.019C134.019 160.863 127.944 160.863 127.943 152.351C127.943 144.704 134.019 144.707 134.019 144.707Z" fill="#01579B"/>
<path d="M108.327 205.509H252.762C252.762 205.509 259.533 205.509 259.533 213.587C259.533 221.665 252.762 221.665 252.762 221.665H108.327C108.327 221.665 102.251 221.665 102.251 213.153C102.251 205.505 108.327 205.509 108.327 205.509Z" fill="#01579B"/>
<path d="M79.5089 268.395H223.944C223.944 268.395 230.715 268.395 230.715 276.473C230.715 284.551 223.944 284.551 223.944 284.551H79.5089C79.5089 284.551 73.433 284.551 73.433 276.039C73.433 268.391 79.5089 268.395 79.5089 268.395Z" fill="#01579B"/>
</svg>
