<svg width="395" height="427" viewBox="0 0 395 427" fill="none" xmlns="http://www.w3.org/2000/svg">
<path d="M6.23028 69.7143H97.1924C97.1924 69.7143 102.043 46.4421 109.653 33.6122C129.59 0 138.312 0 138.312 0H257.245L241.735 34.8571H152.019L137.066 69.7143H257.245L241.735 34.8571L257.245 0C257.245 0 267.902 0 286.593 34.8571C293.285 47.3365 296.562 69.7143 296.562 69.7143H388.77C388.77 69.7143 395 69.7143 395 88.3878C395 107.061 388.77 107.061 388.77 107.061H356.372V385.918C356.372 385.918 356.372 399.612 343.912 410.816C335.881 418.038 321.483 427 321.483 427H74.7634V385.918H320.237V107.061H74.7634V385.918V427C74.7634 427 58.3883 420.196 51.0883 412.061C38.7991 398.367 38.6278 385.918 38.6278 385.918V107.061H6.23028C6.23028 107.061 0 107.061 0 88.3878C0 69.7143 6.23028 69.7143 6.23028 69.7143Z" fill="#01579B"/>
<path d="M107.161 164.327C107.161 164.327 107.161 156.857 127.098 156.857C144.543 156.857 144.543 164.327 144.543 164.327V331.143C144.543 331.143 144.543 339.857 127.098 339.857C107.161 339.857 107.161 331.143 107.161 331.143V164.327Z" fill="#01579B"/>
<path d="M178.186 164.327C178.186 164.327 178.186 156.857 198.123 156.857C215.568 156.857 215.568 164.327 215.568 164.327V331.143C215.568 331.143 215.568 339.857 198.123 339.857C178.186 339.857 178.186 331.143 178.186 331.143V164.327Z" fill="#01579B"/>
<path d="M249.211 164.327C249.211 164.327 249.211 156.857 269.148 156.857C286.593 156.857 286.593 164.327 286.593 164.327V331.143C286.593 331.143 286.593 339.857 269.148 339.857C249.211 339.857 249.211 331.143 249.211 331.143V164.327Z" fill="#01579B"/>
</svg>
