<svg width="355" height="375" viewBox="0 0 355 375" fill="none" xmlns="http://www.w3.org/2000/svg">
<path d="M224.537 23.5252C224.537 23.5252 225.884 22.2636 226.72 22.0683C227.689 21.8421 229.267 22.2504 229.267 22.2504L239.275 28.2602C239.275 28.2602 240.29 29.4348 240.549 30.2635C240.803 31.0781 240.367 32.8131 240.367 32.8131L236.728 39.005L220.715 29.8993L224.537 23.5252Z" fill="#01579B"/>
<path d="M217.804 30.2635L239.821 42.8295C239.821 42.8295 241.737 44.7559 242.186 46.2897C242.646 47.8595 242.004 50.8426 242.004 50.8426L224.537 81.9843C224.537 81.9843 222.217 84.293 220.715 84.716C219.074 85.1785 214.893 84.1697 214.893 84.1697L192.876 71.6038C192.876 71.6038 191.141 69.5583 190.693 67.9615C190.231 66.3183 190.693 63.5907 190.693 63.5907L208.888 31.7204C208.888 31.7204 211.252 29.7468 212.891 29.535C214.619 29.3118 217.804 30.2635 217.804 30.2635Z" fill="#01579B"/>
<path d="M211.618 84.1697L195.605 75.0639C195.605 75.0639 109.905 211.577 62.2307 271.202C29.658 311.941 0.547119 338.585 0.547119 338.585C0.547119 338.585 0.0295008 340.129 0.0012477 341.135C-0.0247843 342.062 0.365162 343.502 0.365162 343.502L9.64499 367.177C9.64499 367.177 12.1653 368.94 14.012 368.998C15.8087 369.055 18.3789 367.542 18.3789 367.542C18.3789 367.542 67.5563 314.174 105.9 257.544C143.101 202.603 211.618 84.1697 211.618 84.1697Z" fill="#01579B"/>
<path d="M243.824 48.2929C243.824 48.2929 271.839 58.0648 290.223 61.9516C309.869 66.1052 340.443 67.7793 340.443 67.7793C340.443 67.7793 335.167 121.503 307.145 153.738C273.14 192.855 226.902 206.916 226.902 206.916L234.726 185.244C234.726 185.244 281.307 163.208 274.575 126.238C267.856 89.3446 225.992 82.8949 225.992 82.8949L243.278 51.9352C243.278 51.9352 243.723 51.0555 243.824 50.2962C243.918 49.5877 243.824 48.2929 243.824 48.2929Z" fill="#01579B"/>
<path d="M355 66.5045L341.535 67.7793C341.535 67.7793 338.815 119.068 305.69 157.016C275.485 191.618 226.356 208.008 226.356 208.008L222.899 214.929C222.899 214.929 273.301 210.376 318.609 162.297C355.169 123.501 355 66.5045 355 66.5045Z" fill="#01579B"/>
<path d="M224.537 23.5252C224.537 23.5252 225.884 22.2636 226.72 22.0683C227.689 21.8421 229.267 22.2504 229.267 22.2504L239.275 28.2602C239.275 28.2602 240.29 29.4348 240.549 30.2635C240.803 31.0781 240.367 32.8131 240.367 32.8131L236.728 39.005L220.715 29.8993L224.537 23.5252Z" fill="#01579B"/>
<path d="M217.804 30.2635L239.821 42.8295C239.821 42.8295 241.737 44.7559 242.186 46.2897C242.646 47.8595 242.004 50.8426 242.004 50.8426L224.537 81.9843C224.537 81.9843 222.217 84.293 220.715 84.716C219.074 85.1785 214.893 84.1697 214.893 84.1697L192.876 71.6038C192.876 71.6038 191.141 69.5583 190.693 67.9615C190.231 66.3183 190.693 63.5907 190.693 63.5907L208.888 31.7204C208.888 31.7204 211.252 29.7468 212.891 29.535C214.619 29.3118 217.804 30.2635 217.804 30.2635Z" fill="#01579B"/>
<path d="M211.618 84.1697L195.605 75.0639C195.605 75.0639 109.905 211.577 62.2307 271.202C29.658 311.941 0.547119 338.585 0.547119 338.585C0.547119 338.585 0.0295008 340.129 0.0012477 341.135C-0.0247843 342.062 0.365162 343.502 0.365162 343.502L9.64499 367.177C9.64499 367.177 12.1653 368.94 14.012 368.998C15.8087 369.055 18.3789 367.542 18.3789 367.542C18.3789 367.542 67.5563 314.174 105.9 257.544C143.101 202.603 211.618 84.1697 211.618 84.1697Z" fill="#01579B"/>
<path d="M243.824 48.2929C243.824 48.2929 271.839 58.0648 290.223 61.9516C309.869 66.1052 340.443 67.7793 340.443 67.7793C340.443 67.7793 335.167 121.503 307.145 153.738C273.14 192.855 226.902 206.916 226.902 206.916L234.726 185.244C234.726 185.244 281.307 163.208 274.575 126.238C267.856 89.3446 225.992 82.8949 225.992 82.8949L243.278 51.9352C243.278 51.9352 243.723 51.0555 243.824 50.2962C243.918 49.5877 243.824 48.2929 243.824 48.2929Z" fill="#01579B"/>
<path d="M355 66.5045L341.535 67.7793C341.535 67.7793 338.815 119.068 305.69 157.016C275.485 191.618 226.356 208.008 226.356 208.008L222.899 214.929C222.899 214.929 273.301 210.376 318.609 162.297C355.169 123.501 355 66.5045 355 66.5045Z" fill="#01579B"/>
<path fill-rule="evenodd" clip-rule="evenodd" d="M265.5 369C308.302 369 343 336.988 343 297.5C343 258.012 308.302 226 265.5 226C222.698 226 188 258.012 188 297.5C188 336.988 222.698 369 265.5 369ZM265.134 238.816C285.241 238.816 285.241 247.248 285.241 247.248V278.276H318.873C318.873 278.276 329.108 278.276 329.108 296.825C329.108 315.375 318.873 315.375 318.873 315.375H285.241V346.403C285.241 346.403 285.241 355.847 265.134 355.847C245.028 355.847 245.028 346.403 245.028 346.403V315.375H211.396C211.396 315.375 201.892 315.375 201.892 296.825C201.892 278.276 211.396 278.276 211.396 278.276H245.028V247.248C245.028 247.248 245.028 238.816 265.134 238.816Z" fill="#01579B"/>
</svg>
