<svg width="423" height="490" viewBox="0 0 423 490" fill="none" xmlns="http://www.w3.org/2000/svg">
<path d="M101.5 61.5718C76.3753 99.4806 84.5 170.572 84.5 170.572L155.5 230.072C155.5 230.072 181.887 246.22 199.5 246.5C218.448 246.801 247 230.072 247 230.072L322.5 170.572C322.5 170.572 323.976 99.6896 298 61.5718C295.071 57.2744 292.387 53.2284 289.864 49.4258C267.584 15.8467 257.897 1.24658 204 0.0717796C142.868 -1.26086 131.557 15.9231 105.885 54.9259C104.47 57.0748 103.012 59.2899 101.5 61.5718Z" fill="#01579B"/>
<path d="M129.151 236.416C107.649 218.005 87.6362 200.87 59.5 210.572C24.3856 222.68 0 278.072 0 278.072L25.5 478.572H224.484C200.105 454.463 185 420.995 185 384C185 310.546 244.546 251 318 251C348.066 251 375.802 260.976 398.078 277.799L398.5 275.072C398.5 275.072 379.727 221.092 344.5 210.572C316.173 202.112 293.699 219.241 269.958 237.336C249.07 253.257 227.201 269.926 199.5 270.572C169.851 271.263 148.874 253.303 129.151 236.416Z" fill="#01579B"/>
<path fill-rule="evenodd" clip-rule="evenodd" d="M317 490C375.542 490 423 442.542 423 384C423 325.458 375.542 278 317 278C258.458 278 211 325.458 211 384C211 442.542 258.458 490 317 490ZM316.5 297C344 297 344 309.5 344 309.5V355.5H390C390 355.5 404 355.5 404 383C404 410.5 390 410.5 390 410.5H344V456.5C344 456.5 344 470.5 316.5 470.5C289 470.5 289 456.5 289 456.5V410.5H243C243 410.5 230 410.5 230 383C230 355.5 243 355.5 243 355.5H289V309.5C289 309.5 289 297 316.5 297Z" fill="#01579B"/>
</svg>
