<svg width="414" height="490" viewBox="0 0 414 490" fill="none" xmlns="http://www.w3.org/2000/svg">
<path d="M60.5 171.5C60.5 171.5 76.3753 100.409 101.5 62.5C130.462 18.8011 139.5 -0.406003 204 0.999996C264 2.3079 269.211 20.2538 298 62.5C323.976 100.618 343.5 171.5 343.5 171.5L247 231V224.5L298 171.5C298 171.5 284.702 116.479 264 88C245.045 61.9244 231.355 39.1098 202 39C172.484 38.8896 159.132 62.2451 139.5 88C117.781 116.493 101.5 171.5 101.5 171.5L155.5 224.5V231L60.5 171.5Z" fill="#01579B"/>
<path d="M162 131C162 131 171.595 131.546 175.5 135.5C178.509 138.547 180 145.5 180 145.5C180 145.5 177.475 150.916 174.5 153C170.451 155.836 162 155 162 155C162 155 152.833 156.103 148.5 153C145.547 150.885 143 145.5 143 145.5C143 145.5 145.202 138.498 148.5 135.5C152.612 131.762 162 131 162 131Z" fill="#01579B"/>
<path d="M237 131C237 131 246.595 131.546 250.5 135.5C253.509 138.547 255 145.5 255 145.5C255 145.5 252.475 150.916 249.5 153C245.451 155.836 237 155 237 155C237 155 227.833 156.103 223.5 153C220.547 150.885 218 145.5 218 145.5C218 145.5 220.202 138.498 223.5 135.5C227.612 131.762 237 131 237 131Z" fill="#01579B"/>
<path d="M129.151 237.344C107.649 218.933 87.6363 201.798 59.5 211.5C24.3856 223.609 0 279 0 279L25.5 479.5H247.487C218.206 459.406 199 425.696 199 387.5C199 325.92 248.92 276 310.5 276C343.128 276 372.483 290.015 392.873 312.353L398.5 276C398.5 276 379.727 222.02 344.5 211.5C316.173 203.041 293.699 220.17 269.958 238.265C249.07 254.185 227.201 270.854 199.5 271.5C169.851 272.192 148.874 254.231 129.151 237.344Z" fill="#01579B"/>
<path fill-rule="evenodd" clip-rule="evenodd" d="M312.5 490C368.557 490 414 444.557 414 388.5C414 332.443 368.557 287 312.5 287C256.443 287 211 332.443 211 388.5C211 444.557 256.443 490 312.5 490ZM312.289 307.993C312.345 307.997 312.402 308.002 312.457 308.007C314.118 307.959 315.285 308.475 316.105 309.222C318.534 310.971 318.252 313.92 318.252 313.92L318.435 377.525C318.435 377.525 318.289 380.34 319.935 381.99C320.68 382.736 321.661 383.109 322.515 383.294L364.765 383.319L388.015 383.235C388.015 383.235 391.439 383.215 393.092 385.814C393.315 386.151 393.502 386.534 393.638 386.97C393.845 387.595 393.966 388.323 393.966 389.174C393.967 391.247 393.248 392.601 392.311 393.487C390.539 395.49 387.917 395.232 387.917 395.232L368.784 395.228L322.456 395.397C321.595 395.583 320.598 395.958 319.842 396.708C318.947 397.595 318.585 398.823 318.441 399.767L318.366 420.523L318.39 464.783C318.39 464.783 318.398 467.668 316.386 469.414C315.5 470.277 314.181 470.921 312.22 470.92C306.246 470.918 306.281 464.969 306.281 464.969L306.441 420.491L306.429 399.96C306.289 399.014 305.93 397.782 305.036 396.89C304.091 395.946 302.762 395.591 301.8 395.46L236.598 395.422C236.598 395.422 230.672 395.405 230.656 389.456C230.65 387.198 231.496 385.796 232.55 384.925C234.326 383.313 237.011 383.307 237.011 383.307L301.478 383.466C302.437 383.335 303.737 382.982 304.664 382.046C306.306 380.391 306.151 377.576 306.151 377.576L306.14 313.971C306.14 313.971 305.874 311.27 307.977 309.498C308.855 308.535 310.207 307.841 312.289 307.993Z" fill="#01579B"/>
</svg>
